
<svg xmlns="http://www.w3.org/2000/svg" version="1.1" xmlns:xlink="http://www.w3.org/1999/xlink" preserveAspectRatio="none" x="0px" y="0px" width="765px" height="833px" viewBox="0 0 765 833">
<defs>
<radialGradient id="Gradient_1" gradientUnits="userSpaceOnUse" cx="0" cy="0" r="66.92499999999998" fx="0" fy="0" gradientTransform="matrix( 1.0000000000000004, 0, 0, -1.2534553604781475, 217.15,464.9) " spreadMethod="pad">
<stop  offset="0%" stop-color="#2C5C67"/>

<stop  offset="100%" stop-color="#238798"/>
</radialGradient>

<linearGradient id="Gradient_2" gradientUnits="userSpaceOnUse" x1="214.2" y1="461.20000000000005" x2="214.2" y2="350.9" spreadMethod="pad">
<stop  offset="0%" stop-color="#C4FFF7"/>

<stop  offset="100%" stop-color="#4396F7"/>
</linearGradient>

<linearGradient id="Gradient_3" gradientUnits="userSpaceOnUse" x1="154.75" y1="773.2625" x2="154.75" y2="-25.662500000000023" spreadMethod="pad">
<stop  offset="0%" stop-color="#43BAF7"/>

<stop  offset="55.294117647058826%" stop-color="#6DEBEF"/>
</linearGradient>

<g id="panel_blue_0_Layer1_0_MEMBER_0_FILL">
<path fill="url(#Gradient_1)" stroke="none" d="
M 231.45 353.4
Q 191.2962890625 352.8955078125 174.6 357.15 156.95 361.55 153.95 366.35 148.15 375.55 146.05 403.4 143.94375 430.9541015625 148.55 442.65 153.17421875 454.38359375 171.1 459.5 189.010546875 464.6708984375 216.45 465.15 243.949609375 465.6240234375 262.15 460.45 280.40078125 455.2853515625 284.25 447.7 288.10078125 440.162890625 291.05 414.3 293.9921875 388.486328125 282.8 371.2 271.660546875 353.91328125 231.45 353.4 Z"/>
</g>

<g id="panel_blue_0_Layer1_0_MEMBER_1_FILL">
<path fill="url(#Gradient_2)" stroke="none" d="
M 230.05 357.15
Q 191.4529296875 353.9181640625 174.25 358 157.0990234375 362.0943359375 154.1 366.75 148.45 375.7 147.05 402.25 145.6525390625 428.705078125 151.9 440.45 158.1919921875 452.1841796875 170.65 455.6 183.1078125 459.065625 209.7 460.65 236.297265625 462.2447265625 256.65 457.15 277 451.9 281.8 442.7 286.649609375 433.647265625 286.6 407.5 286.6013671875 381.410546875 277.6 370.9 268.647265625 360.3822265625 230.05 357.15 Z"/>
</g>

<g id="panel_blue_0_Layer1_0_MEMBER_2_FILL">
<path fill="url(#Gradient_3)" stroke="none" d="
M 525.15 345.5
Q 530.1 161 485.1 104.7 439.85 48.8 160.5 27.55 -118.85 6.3 -150.25 80.1 -181.9 153.55 -192.1 344.35 -202.55 532.95 -168.3 620.2 -134 707.05 -44.55 736.1 44.65 765.2 243.95 757.7 443.25 749.9 481.7 640.3 520.15 530 525.15 345.5 Z"/>
</g>

<g id="panel_blue_0_Layer1_0_MEMBER_3_FILL">
<path fill="#FFFFFF" stroke="none" d="
M 341.55 138.45
Q 341.4232421875 138.8146484375 341.25 139.3 340.55 141.3 340.6 141.85 340.7 142.35 341.5 141.25 342.3 140.15 342.5 139.35 342.6390625 138.701171875 341.55 138.45 Z"/>
</g>

<g id="panel_blue_0_Layer1_0_MEMBER_4_FILL">
<path fill="#FFFFFF" stroke="none" d="
M 342.55 136.5
Q 343.05 136.7 345.4 135.35 347.75 134 347.5 133.7 347.35 133.4 346 133.6 344.8 133.8 344 134.15 343.3 134.45 342.7 135.4 342.1 136.3 342.55 136.5 Z"/>
</g>

<g id="panel_blue_0_Layer1_0_MEMBER_5_FILL">
<path fill="#FFFFFF" stroke="none" d="
M 342.55 136.5
Q 343.05 136.7 345.4 135.35 347.75 134 347.5 133.7 347.35 133.4 346 133.6 344.8 133.8 344 134.15 343.3 134.45 342.7 135.4 342.1 136.3 342.55 136.5 Z"/>
</g>
</defs>

<g transform="matrix( 1, 0, 0, 1, 205.2,16.1) ">
<g transform="matrix( 5.2313690185546875, 0, 0, 7.454498291015625, -965.8,-2650.1) ">
<use xlink:href="#panel_blue_0_Layer1_0_MEMBER_0_FILL"/>
</g>

<g transform="matrix( 5.2313690185546875, 0, 0, 7.454498291015625, -965.8,-2650.1) ">
<use xlink:href="#panel_blue_0_Layer1_0_MEMBER_1_FILL"/>
</g>

<g transform="matrix( 1, 0, 0, 1, 0,0) ">
<use xlink:href="#panel_blue_0_Layer1_0_MEMBER_2_FILL"/>
</g>

<g transform="matrix( 14.796829223632812, 0, 0, 21.08489990234375, -5206.1,-2765.65) ">
<use xlink:href="#panel_blue_0_Layer1_0_MEMBER_3_FILL"/>
</g>

<g transform="matrix( 14.796829223632812, 0, 0, 21.08489990234375, -5203.7,-2765.65) ">
<use xlink:href="#panel_blue_0_Layer1_0_MEMBER_4_FILL"/>
</g>

<g transform="matrix( -14.796829223632812, 0, 0, -21.08489990234375, 5525.8,3518.25) ">
<use xlink:href="#panel_blue_0_Layer1_0_MEMBER_5_FILL"/>
</g>
</g>
</svg>
