
<svg xmlns="http://www.w3.org/2000/svg" version="1.1" xmlns:xlink="http://www.w3.org/1999/xlink" preserveAspectRatio="none" x="0px" y="0px" width="96px" height="73px" viewBox="0 0 96 73">
<defs>
<radialGradient id="Gradient_1" gradientUnits="userSpaceOnUse" cx="0" cy="0" r="66.92499999999998" fx="0" fy="0" gradientTransform="matrix( 1.0000000000000004, 0, 0, -1.2534553604781475, 217.15,464.9) " spreadMethod="pad">
<stop  offset="0%" stop-color="#2C5C67"/>

<stop  offset="100%" stop-color="#238798"/>
</radialGradient>

<linearGradient id="Gradient_2" gradientUnits="userSpaceOnUse" x1="214.2" y1="461.20000000000005" x2="214.2" y2="350.9" spreadMethod="pad">
<stop  offset="0%" stop-color="#C4FFF7"/>

<stop  offset="100%" stop-color="#4396F7"/>
</linearGradient>

<linearGradient id="Gradient_3" gradientUnits="userSpaceOnUse" x1="214.2" y1="459.23749999999995" x2="214.2" y2="352.0625" spreadMethod="pad">
<stop  offset="0%" stop-color="#43BAF7"/>

<stop  offset="55.294117647058826%" stop-color="#6DEBEF"/>
</linearGradient>

<filter id="Filter_1" x="-20%" y="-20%" width="140%" height="140%" color-interpolation-filters="sRGB">
<feColorMatrix in="SourceGraphic" type="matrix" values="1 0 0 0 0 0 1 0 0 0 0 0 1 0 0 0 0 0 0.24 0" result="result1"/>
</filter>

<g id="small_blue_button_0_Layer2_0_MEMBER_0_FILL">
<path fill="url(#Gradient_1)" stroke="none" d="
M 231.45 353.4
Q 191.2962890625 352.8955078125 174.6 357.15 156.95 361.55 153.95 366.35 148.15 375.55 146.05 403.4 143.94375 430.9541015625 148.55 442.65 153.17421875 454.38359375 171.1 459.5 189.010546875 464.6708984375 216.45 465.15 243.949609375 465.6240234375 262.15 460.45 280.40078125 455.2853515625 284.25 447.7 288.10078125 440.162890625 291.05 414.3 293.9921875 388.486328125 282.8 371.2 271.660546875 353.91328125 231.45 353.4 Z"/>
</g>

<g id="small_blue_button_0_Layer2_0_MEMBER_1_FILL">
<path fill="url(#Gradient_2)" stroke="none" d="
M 230.05 357.15
Q 191.4529296875 353.9181640625 174.25 358 157.0990234375 362.0943359375 154.1 366.75 148.45 375.7 147.05 402.25 145.6525390625 428.705078125 151.9 440.45 158.1919921875 452.1841796875 170.65 455.6 183.1078125 459.065625 209.7 460.65 236.297265625 462.2447265625 256.65 457.15 277 451.9 281.8 442.7 286.649609375 433.647265625 286.6 407.5 286.6013671875 381.410546875 277.6 370.9 268.647265625 360.3822265625 230.05 357.15 Z"/>
</g>

<g id="small_blue_button_0_Layer2_0_MEMBER_2_FILL">
<path fill="url(#Gradient_3)" stroke="none" d="
M 277.3 369.55
Q 268.7025390625 362.0318359375 215.3 359.2 161.90078125 356.357421875 155.85 366.2 149.8494140625 376.0986328125 147.9 401.7 145.8998046875 426.9931640625 152.45 438.65 159.001953125 450.3607421875 176.05 454.25 193.1484375 458.1375 231.25 457.1 269.34296875 456.1158203125 276.7 441.35 284.06484375 426.6248046875 285 401.85 285.941015625 377.075390625 277.3 369.55 Z"/>
</g>

<g id="small_blue_button_0_Layer2_0_MEMBER_3_FILL">
<path fill="#FFFFFF" stroke="none" d="
M 341.55 138.45
Q 341.4232421875 138.8146484375 341.25 139.3 340.55 141.3 340.6 141.85 340.7 142.35 341.5 141.25 342.3 140.15 342.5 139.35 342.6390625 138.701171875 341.55 138.45 Z"/>
</g>

<g id="small_blue_button_0_Layer2_0_MEMBER_4_FILL">
<path fill="#FFFFFF" stroke="none" d="
M 342.55 136.5
Q 343.05 136.7 345.4 135.35 347.75 134 347.5 133.7 347.35 133.4 346 133.6 344.8 133.8 344 134.15 343.3 134.45 342.7 135.4 342.1 136.3 342.55 136.5 Z"/>
</g>

<g id="small_blue_button_0_Layer2_0_MEMBER_5_FILL">
<path fill="#FFFFFF" stroke="none" d="
M 342.55 136.5
Q 343.05 136.7 345.4 135.35 347.75 134 347.5 133.7 347.35 133.4 346 133.6 344.8 133.8 344 134.15 343.3 134.45 342.7 135.4 342.1 136.3 342.55 136.5 Z"/>
</g>

<g id="buttons_layers_highlight_0_Layer0_0_FILL">
<path fill="#FFFFFF" stroke="none" d="
M 42.5 10.4
Q 41.95 5.8 40.7 2.9 31.85 -1.95 15.05 1.25 6.65 2.85 0 5.4 0.75 5.35 2.25 5.4 5.25 5.55 9.05 6.25 11.5 6.7 18.9 11.85 25.55 16.5 29.6 16.2 34.9 15.85 39.2 13.1 41.4 11.7 42.5 10.4 Z"/>
</g>
</defs>

<g transform="matrix( 1, 0, 0, 1, 0,0) ">
<g transform="matrix( 0.661407470703125, 0, 0, 0.661407470703125, -96.15,-233.7) ">
<use xlink:href="#small_blue_button_0_Layer2_0_MEMBER_0_FILL"/>
</g>

<g transform="matrix( 0.661407470703125, 0, 0, 0.661407470703125, -96.15,-233.7) ">
<use xlink:href="#small_blue_button_0_Layer2_0_MEMBER_1_FILL"/>
</g>

<g transform="matrix( 0.661407470703125, 0, 0, 0.661407470703125, -96.15,-233.7) ">
<use xlink:href="#small_blue_button_0_Layer2_0_MEMBER_2_FILL"/>
</g>

<g transform="matrix( 1.8707733154296875, 0, 0, 1.8707733154296875, -632.25,-243.95) ">
<use xlink:href="#small_blue_button_0_Layer2_0_MEMBER_3_FILL"/>
</g>

<g transform="matrix( 1.8707733154296875, 0, 0, 1.8707733154296875, -631.95,-243.95) ">
<use xlink:href="#small_blue_button_0_Layer2_0_MEMBER_4_FILL"/>
</g>

<g transform="matrix( -1.8707733154296875, 0, 0, -1.8707733154296875, 724.6,313.6) ">
<use xlink:href="#small_blue_button_0_Layer2_0_MEMBER_5_FILL"/>
</g>

<g transform="matrix( 1.8707733154296875, 0, 0, 1.8707733154296875, 7.9,6.25) ">
<g transform="matrix( 1, 0, 0, 1, 0,0) ">
<use filter="url(#Filter_1)" xlink:href="#buttons_layers_highlight_0_Layer0_0_FILL"/>
</g>
</g>
</g>
</svg>
