
<svg xmlns="http://www.w3.org/2000/svg" version="1.1" xmlns:xlink="http://www.w3.org/1999/xlink" preserveAspectRatio="none" x="0px" y="0px" width="237px" height="183px" viewBox="0 0 237 183">
<defs>
<radialGradient id="Gradient_1" gradientUnits="userSpaceOnUse" cx="0" cy="0" r="85.9" fx="0" fy="0" gradientTransform="matrix( 1, 0, 0, 1, 8.85,18.65) " spreadMethod="pad">
<stop  offset="0%" stop-color="#FA38AD"/>

<stop  offset="100%" stop-color="#FDACDD"/>
</radialGradient>

<g id="brain_0_Layer1_0_FILL">
<path fill="url(#Gradient_1)" stroke="none" d="
M 54.3 -25.15
Q 53.940234375 -38.790625 40.2 -39.65 33.9564453125 -55.0728515625 18.05 -52.1 2.893359375 -66.0568359375 -13.05 -54.25 -22.6251953125 -59.7322265625 -33.65 -55.25 -41.0111328125 -49.2265625 -40.6 -39.4 -57.031640625 -39.735546875 -51.35 -24.4
L -44.55 -31.05 -51.35 -24.4
Q -51.3103515625 -24.377734375 -51.3 -24.35 -60.3833984375 -8.9001953125 -51.45 1.8 -50.5564453125 -3.71640625 -46.1 -4.55 -50.5564453125 -3.71640625 -51.45 1.8 -51.378515625 1.9076171875 -51.3 2 -50.5974609375 13.850390625 -37 10.8 -36.8693359375 10.80234375 -36.75 10.75 -32.53671875 9.2123046875 -32.4 5.7 -32.53671875 9.2123046875 -36.75 10.75 -36.60234375 10.7365234375 -36.45 10.7 -25.3421875 27.440234375 -7.9 23 -7.7400390625 23.1150390625 -7.6 23.2 -12.7943359375 18.4375 -13.3 13.65 -12.7943359375 18.4375 -7.6 23.2 8.272265625 34.367578125 23.4 19.95 18.9185546875 15.9625 19.3 11.95 18.9185546875 15.9625 23.4 19.95 23.5146484375 19.8818359375 23.6 19.8 28.65 23.90546875 33.7 19.4 50.537109375 14.840234375 48.35 1 65.61640625 -6.01796875 54.3 -25.15
M 30.9 -33.9
Q 30.9802734375 -33.8033203125 31.05 -33.7 42.66484375 -33.438671875 45.55 -24.15 47.019921875 -19.528125 46.3 -12.65 47.4189453125 -21.3365234375 53.8 -24.65 47.4189453125 -21.3365234375 46.3 -12.65
L 46.25 -12.4 46.3 -12.65
Q 47.019921875 -19.528125 45.55 -24.15
L 38.85 -17.9
Q 38.7333984375 -8.1189453125 32.95 -4.5 30.38515625 -2.869921875 26.7 -2.15 24.6384765625 4.817578125 30.1 11.75 24.6384765625 4.817578125 26.7 -2.15 26.0134765625 -3.132421875 25.2 -4.15 26.0134765625 -3.132421875 26.7 -2.15 30.38515625 -2.869921875 32.95 -4.5
L 29.95 -11.55
Q 26.411328125 -22.0224609375 30.9 -33.9 21.163671875 -48.1505859375 8.15 -36.95 4.584765625 -34.01328125 3.8 -14.95 4.584765625 -34.01328125 8.15 -36.95 -6.79609375 -49.6931640625 -13.4 -33.7 -12.054296875 -28.126953125 -13 -23.4 -12.7435546875 -16.067578125 -8.4 -18.55 -8.1923828125 -26.7486328125 -3.8 -34.3 -8.1923828125 -26.7486328125 -8.4 -18.55 -8.4376953125 -16.3953125 -8.2 -14.2 -4.4548828125 -2.6625 1.15 0 9.2736328125 -10.3119140625 25 -4.55 9.2736328125 -10.3119140625 1.15 0 -0.3220703125 1.9234375 -1.55 4.35
L -1.55 4.5
Q -1.435546875 4.6447265625 -1.35 4.8 1.7951171875 10.0697265625 0.75 15.35 1.7951171875 10.0697265625 -1.35 4.8 -1.435546875 4.6447265625 -1.55 4.5 -12.6044921875 -2.19921875 -24.3 1.35 -24.043359375 4.2046875 -25.2 7.05 -24.043359375 4.2046875 -24.3 1.35 -24.7720703125 -4.6740234375 -31.8 -10.7 -31.6998046875 -10.825 -31.8 -10.95
L -32.35 -16.3 -36.4 -17.05 -32.35 -16.3 -32.3 -16.3 -32.55 -18.15 -32.6 -23.8
Q -45.96171875 -23.916015625 -40.55 -11.15 -35.2060546875 -8.781640625 -39.05 0.35 -35.2060546875 -8.781640625 -40.55 -11.15 -45.96171875 -23.916015625 -32.6 -23.8 -32.451171875 -23.8029296875 -32.3 -23.8 -30.79609375 -44.6798828125 -13.4 -33.7 -6.79609375 -49.6931640625 8.15 -36.95 21.163671875 -48.1505859375 30.9 -33.9
M 40.15 -39.4
L 35.8 -38.85 40.15 -39.4
M 7.8 -48.15
Q 11.1962890625 -46.9630859375 11.55 -45.1 16.35625 -50.16796875 28.05 -47.75 16.35625 -50.16796875 11.55 -45.1 11.1962890625 -46.9630859375 7.8 -48.15
M 19.15 -6.85
Q 16.59375 -18.6658203125 20.1 -28.6 16.59375 -18.6658203125 19.15 -6.85
M 47.75 -3
L 48.5 -6.8 47.75 -3
Q 44.525 0.2986328125 41.3 0.6 44.525 0.2986328125 47.75 -3
M 15.9 13.85
Q 18.35 10.05 22.15 11.4 18.35 10.05 15.9 13.85
M -8.75 -49.65
L -12.7 -53.8 -8.75 -49.65
Q -12.572265625 -43.6994140625 -20.1 -43.6 -12.572265625 -43.6994140625 -8.75 -49.65
M -38.1 -34.5
L -33.95 -35.45
Q -32.1298828125 -37.844140625 -33.55 -40.75 -32.1298828125 -37.844140625 -33.95 -35.45
L -38.1 -34.5 Z"/>

<path fill="#FB62BE" stroke="none" d="
M -32.3 -23.8
Q -32.451171875 -23.8029296875 -32.6 -23.8
L -32.55 -18.15 -32.3 -16.3 -32.35 -16.3 -31.8 -10.95
Q -31.6998046875 -10.825 -31.8 -10.7 -24.7720703125 -4.6740234375 -24.3 1.35 -12.6044921875 -2.19921875 -1.55 4.5
L -1.55 4.35
Q -0.3220703125 1.9234375 1.15 0 -4.4548828125 -2.6625 -8.2 -14.2 -8.4376953125 -16.3953125 -8.4 -18.55 -12.7435546875 -16.067578125 -13 -23.4 -13.7802734375 -19.4578125 -16.3 -16.1 -13.7802734375 -19.4578125 -13 -23.4 -12.054296875 -28.126953125 -13.4 -33.7 -30.79609375 -44.6798828125 -32.3 -23.8
M -25.2 -15.35
Q -23.9900390625 -9.5892578125 -15.95 -5.65 -23.9900390625 -9.5892578125 -25.2 -15.35 -26.4482421875 -23.6984375 -22.95 -29.75 -26.4482421875 -23.6984375 -25.2 -15.35
M 31.05 -33.7
Q 30.9802734375 -33.8033203125 30.9 -33.9 26.411328125 -22.0224609375 29.95 -11.55
L 32.95 -4.5
Q 38.7333984375 -8.1189453125 38.85 -17.9 38.85 -18.09296875 38.85 -18.3 38.85 -18.09296875 38.85 -17.9
L 45.55 -24.15
Q 42.66484375 -33.438671875 31.05 -33.7 Z"/>
</g>

<g id="brain_0_Layer0_0_FILL">
<path fill="#FED6EE" stroke="none" d="
M -6.8 8.15
Q -5.55 9.2 -5.3 7.8 -5.05 6.45 -6.9 5.05 -8.75 3.7 -11.6 3.15 -14.5 2.55 -16.7 3.15 -19 3.7 -19.25 5.1 -19.5 6.5 -16 5.2 -12.55 3.9 -10.35 5.45 -8.05 7.05 -6.8 8.15
M 11.65 -2.9
Q 7.7 -2.1 5.2 -0.35 2.65 1.4 3 3.05 3.35 4.7 7.1 1.55 10.8 -1.6 14.4 -1 18.1 -0.45 20.2 0.1 22.3 0.65 21.95 -1 21.6 -2.65 18.55 -3.2 15.55 -3.75 11.65 -2.9
M 3.55 -34.65
Q 3.25 -36.8 1.15 -38.4 -0.8 -39.9 -3.4 -40 -6.05 -40.1 -7.65 -38.6 -9.3 -37.15 -9 -34.95 -8.7 -32.75 -6.3 -35.7 -3.9 -38.6 -1.5 -36.85 1 -35 2.4 -33.7 3.85 -32.45 3.55 -34.65 Z"/>

<path fill="#FDBDE3" stroke="none" d="
M -15.9 -30
Q -16.2 -32.15 -18.3 -33.75 -20.25 -35.25 -22.85 -35.35 -25.5 -35.45 -27.1 -33.95 -28.75 -32.5 -28.45 -30.3 -28.15 -28.1 -25.75 -31.05 -23.35 -33.95 -20.95 -32.2 -18.45 -30.35 -17.05 -29.05 -15.6 -27.8 -15.9 -30 Z"/>

<path fill="#FA1FA3" stroke="none" d="
M -52.9 -14.15
Q -53.4 -10.6 -52.2 -8.1 -51.05 -5.6 -48.9 -5.7 -46.75 -5.85 -49.25 -9.55 -51.65 -13.25 -49.65 -16.3 -47.6 -19.4 -46.2 -21.15 -44.75 -22.95 -46.9 -22.85 -49 -22.7 -50.75 -20.1 -52.4 -17.65 -52.9 -14.15
M 42.15 11.45
Q 44.25 9.05 44.4 6.5 44.6 4 42.75 2.95 40.85 1.95 41.2 6.05 41.5 10.1 38.35 11.3 35.2 12.6 33.2 13.15 31.1 13.7 33 14.8 34.8 15.8 37.5 14.8 40.1 13.85 42.15 11.45 Z"/>

<path fill="#FDCEEF" stroke="none" d="
M -26.65 -51.6
Q -22.9 -51.5 -20.65 -51.2 -18.35 -50.95 -19.75 -52.75 -21.15 -54.45 -24.25 -54.55 -27.25 -54.7 -30.3 -53.25 -33.45 -51.75 -34.65 -49.4 -35.95 -47.1 -34.55 -45.3 -33.15 -43.55 -31.75 -47.65 -30.25 -51.7 -26.65 -51.6
M 3.1 -54.25
Q 6.65 -53 8.7 -52.05 10.8 -51.15 9.95 -52.95 9.05 -54.7 6.15 -55.75 3.35 -56.8 0.1 -56.7 -3.3 -56.55 -5 -55.15 -6.85 -53.85 -5.95 -52.05 -5.1 -50.25 -2.7 -52.9 -0.25 -55.45 3.1 -54.25 Z"/>

<path fill="#F90698" stroke="none" d="
M 10.75 20.1
Q 6.2 22.75 2.15 20.95 -1.95 19.1 -4.25 17.9 -6.65 16.55 -6.35 18.7 -6.05 20.75 -2.65 22.3 0.6 23.8 5.1 24.05 9.65 24.3 12.8 22.95 15.95 21.65 15.7 19.5 15.4 17.4 10.75 20.1 Z"/>

<path fill="#FEE7F5" stroke="none" d="
M 27.2 -33.5
Q 26.8 -35.65 24.05 -37.25 21.45 -38.75 18.05 -38.85 14.55 -38.95 12.45 -37.45 10.25 -36 10.65 -33.8 11.05 -31.6 14.2 -34.55 17.4 -37.45 20.55 -35.7 23.85 -33.85 25.7 -32.55 27.6 -31.3 27.2 -33.5 Z"/>

<path fill="#FDB5E0" stroke="none" d="
M 38.4 -28.35
Q 36.85 -30.25 34.3 -30.85 32.75 -31.2 31.4 -30.95
L 30.65 -27.25
Q 33.55 -29.55 35.5 -27.4 37.6 -25.1 38.65 -23.5 39.85 -22 40 -24.2 40.15 -26.35 38.4 -28.35 Z"/>
</g>

<path id="brain_0_Layer1_0_1_STROKES" stroke="#000000" stroke-width="3" stroke-linejoin="round" stroke-linecap="round" fill="none" d="
M 30.9 -33.9
Q 26.411328125 -22.0224609375 29.95 -11.55
M 32.95 -4.475
Q 38.7333984375 -8.1189453125 38.85 -17.9 38.85 -18.09296875 38.85 -18.3
M 40.15 -39.4
L 35.8 -38.85
M 7.8 -48.15
Q 11.1962890625 -46.9630859375 11.55 -45.1 16.35625 -50.16796875 28.05 -47.75
M 25.2 -4.15
Q 26.0134765625 -3.132421875 26.7 -2.125 30.38515625 -2.869921875 32.95 -4.475
M 30.9 -33.9
Q 21.163671875 -48.1505859375 8.15 -36.95 4.584765625 -34.01328125 3.8 -14.95
M 19.15 -6.85
Q 16.59375 -18.6658203125 20.1 -28.6
M 53.8 -24.65
Q 47.4189453125 -21.3365234375 46.3 -12.65
L 46.275 -12.375
M 41.3 0.6
Q 44.525 0.2986328125 47.75 -3
L 48.5 -6.8
M 46.3 -12.65
Q 47.019921875 -19.528125 45.575 -24.15
M -51.325 -24.4
Q -57.031640625 -39.735546875 -40.6 -39.4 -41.0111328125 -49.2265625 -33.65 -55.25 -22.6251953125 -59.7322265625 -13.05 -54.25 2.893359375 -66.0568359375 18.05 -52.1 33.9564453125 -55.0728515625 40.2 -39.65 53.940234375 -38.790625 54.3 -25.15 65.61640625 -6.01796875 48.35 1 50.537109375 14.840234375 33.7 19.4 28.65 23.90546875 23.6 19.8 23.5146484375 19.8818359375 23.425 19.975 8.272265625 34.367578125 -7.575 23.225 -7.7400390625 23.1150390625 -7.9 23 -25.3421875 27.440234375 -36.45 10.7 -36.60234375 10.7365234375 -36.75 10.775 -36.8693359375 10.80234375 -37 10.825 -50.5974609375 13.850390625 -51.3 2 -51.378515625 1.9076171875 -51.45 1.825 -60.3833984375 -8.9001953125 -51.3 -24.35 -51.3103515625 -24.377734375 -51.325 -24.4
L -44.55 -31.05
M 45.575 -24.15
Q 42.66484375 -33.438671875 31.05 -33.7
M 15.9 13.85
Q 18.35 10.05 22.15 11.4
M 19.3 11.95
Q 18.9185546875 15.9625 23.425 19.975
M 25 -4.55
Q 9.2736328125 -10.3119140625 1.15 0.025 -0.3220703125 1.9234375 -1.55 4.35
L -1.525 4.5
Q -1.435546875 4.6447265625 -1.35 4.8 1.7951171875 10.0697265625 0.75 15.35
M 30.1 11.75
Q 24.6384765625 4.817578125 26.7 -2.125
M -20.1 -43.6
Q -12.572265625 -43.6994140625 -8.75 -49.65
L -12.7 -53.8
M -38.1 -34.5
L -33.95 -35.45
Q -32.1298828125 -37.844140625 -33.55 -40.75
M -13 -23.375
Q -12.054296875 -28.126953125 -13.4 -33.7 -30.79609375 -44.6798828125 -32.3 -23.8 -32.451171875 -23.8029296875 -32.6 -23.8
L -32.55 -18.15 -32.3 -16.3 -32.35 -16.3
M -31.775 -10.7
Q -24.7720703125 -4.6740234375 -24.275 1.35 -12.6044921875 -2.19921875 -1.525 4.5
M -32.35 -16.3
L -36.4 -17.05
M -16.3 -16.1
Q -13.7802734375 -19.4578125 -13 -23.375
M -8.375 -18.55
Q -8.1923828125 -26.7486328125 -3.8 -34.3
M 1.15 0.025
Q -4.4548828125 -2.6625 -8.2 -14.2 -8.4376953125 -16.3953125 -8.375 -18.55
M -22.95 -29.75
Q -26.4482421875 -23.6984375 -25.2 -15.35 -23.9900390625 -9.5892578125 -15.95 -5.65
M -32.6 -23.8
Q -45.96171875 -23.916015625 -40.55 -11.15 -35.2060546875 -8.781640625 -39.05 0.35
M -13.3 13.65
Q -12.7943359375 18.4375 -7.575 23.225
M -24.275 1.35
Q -24.043359375 4.2046875 -25.2 7.05
M -36.75 10.775
Q -32.53671875 9.2123046875 -32.4 5.7
M -51.45 1.825
Q -50.5564453125 -3.71640625 -46.1 -4.55
M 8.15 -36.95
Q -6.79609375 -49.6931640625 -13.4 -33.7"/>
</defs>

<g transform="matrix( 2.01824951171875, 0, 0, 2.01824951171875, 115.85,123.4) ">
<g transform="matrix( 1, 0, 0, 1, 0,0) ">
<use xlink:href="#brain_0_Layer1_0_FILL"/>

<use xlink:href="#brain_0_Layer1_0_1_STROKES"/>
</g>

<g transform="matrix( 1, 0, 0, 1, 0,0) ">
<use xlink:href="#brain_0_Layer0_0_FILL"/>
</g>
</g>
</svg>
