
<svg xmlns="http://www.w3.org/2000/svg" version="1.1" xmlns:xlink="http://www.w3.org/1999/xlink" preserveAspectRatio="none" x="0px" y="0px" width="1770px" height="374px" viewBox="0 0 1770 374">
<defs>
<g id="Layer0_0_FILL">
<path fill="#40C6C1" stroke="none" d="
M 502.45 302.95
Q 502.45 300.9 500.95 299.55 499.5 298.05 497.45 298.05
L 497.35 298.05
Q 495.35 298.05 493.95 299.55 492.45 300.9 492.45 302.95
L 492.45 344.2
Q 492.45 346.25 493.95 347.7 495.35 349.2 497.35 349.2
L 497.45 349.2
Q 499.6 349.2 500.95 347.7 502.45 346.35 502.45 344.2
L 502.45 302.95
M 520.85 294.75
Q 519.5 293.25 517.35 293.25 515.35 293.25 513.85 294.75 512.35 296.25 512.35 298.25
L 512.35 316
Q 512.35 318.15 513.85 319.55 515.35 321 517.35 321 519.5 321 520.85 319.55 522.35 318.15 522.35 316
L 522.35 298.25
Q 522.35 296.25 520.85 294.75
M 474.25 297.6
Q 472.8 299.1 472.8 301.15
L 472.8 349.65
Q 472.8 351.75 474.25 353.15 475.75 354.65 477.8 354.65 479.9 354.65 481.3 353.15 482.8 351.75 482.8 349.65
L 482.8 301.15
Q 482.8 299.1 481.3 297.6 479.9 296.15 477.8 296.15 475.75 296.15 474.25 297.6
M 378.85 280.05
Q 376.75 280.05 375.35 281.75 373.95 283.45 373.95 286.15
L 373.95 318.25
Q 373.95 321.1 375.35 322.7 376.65 324.3 378.85 324.3 381.1 324.4 382.6 322.85 384.1 321.25 384.1 318.45 384.3 302.3 384.1 286.05 384.1 283.35 382.6 281.75 381.1 280.05 378.85 280.05
M 399.05 269.65
Q 396.75 269.55 395.25 271.35 393.75 273.15 393.75 276.15
L 393.75 321.35
Q 393.75 324.1 395.25 325.9 396.75 327.7 398.85 327.7 401.1 327.85 402.5 326 403.85 324.3 403.85 321.45
L 403.85 276.15
Q 403.85 269.95 399.05 269.65
M 461.5 290.05
Q 460.15 288.6 458 288.6 456 288.6 454.5 290.05 453 291.55 453 293.6
L 453 302.2
Q 453 304.3 454.5 305.7 456 307.2 458 307.2 460.15 307.2 461.5 305.7 463 304.3 463 302.2
L 463 293.6
Q 463 291.55 461.5 290.05
M 413.85 258.5
Q 431.75 258.5 444.3 267.1
L 461.1 278.6
Q 474.6 287.85 493.5 287.85 512.55 287.85 526.05 278.6
L 532.45 274.2
Q 534.05 273.15 534.35 271.15 534.8 269.2 533.6 267.6 532.55 266.05 530.65 265.7 528.75 265.4 527.05 266.45
L 520.65 270.8
Q 508.2 278.45 493.5 278.45 478.95 278.45 466.4 270.8
L 449.6 259.2
Q 434.6 249 413.85 249 393 249 378 259.2
L 367.15 266.65
Q 365.55 267.85 365.15 269.75 364.8 271.65 365.9 273.25 367.05 274.85 368.95 275.3 370.9 275.6 372.5 274.55
L 383.35 267.1
Q 395.65 258.5 413.85 258.5
M 438.1 276.75
Q 436 276.75 434.6 278.45 433.3 280.05 433.3 282.85
L 433.3 298.8 433.2 298.8 433.2 314.95
Q 433.45 321 438.2 321 440.45 321.1 441.95 319.55 443.3 317.95 443.3 315.15 443.55 299 443.3 282.75 443.3 280.05 441.85 278.45 440.35 276.75 438.1 276.75
M 418.65 268.8
Q 416.75 268.8 415.25 270.05 413.75 271.35 413.55 273.35
L 413.55 368.55
Q 413.55 371.1 414.9 372.7 416.3 374.3 418.45 374.4 420.55 374.4 422.05 372.9 423.55 371.35 423.65 368.9
L 423.65 278.05
Q 423.75 276.45 423.55 273.35 423.45 271.45 421.95 270.2 420.55 268.8 418.65 268.8 Z"/>

<path fill="#F5AD2F" stroke="none" d="
M 326.55 260.8
Q 326 258.25 325.8 254.85 324.2 239 322.6 218.4
L 310.7 56.05
Q 309.1 38.1 308.05 28.85 306.65 19.5 301.55 11.3 297.05 4.6 291.65 4.6
L 287.5 4.8
Q 281.2 4.8 273.15 17.65 265.05 30.75 254.75 55.85 244.65 80.1 230.7 118.4
L 199.75 204.65
Q 195.05 179.85 192.95 166.6 189.95 148.05 187.4 135.4 183.25 114.15 180.3 100.55 177.1 85.1 173.6 72.25 170.95 61.9 166.45 46.6 163.35 35.75 158.25 20 156.15 8.75 152.1 4.5 147.95 0 139.95 0 134.35 0 129.1 3.2 123.8 6.8 122.4 13.3
L 118.6 29.35
Q 116.45 38.95 110.85 61.5 106.6 79.35 99.75 104.8 93.7 127.45 85.85 153.5 77.55 180.6 69.65 202.65 61.25 226.35 51.9 246.65 44.15 264 33.2 280.2 23.6 294 14.15 298.05 6.9 300.8 2.65 307.5 -0.75 312.7 0.2 319.1 1.4 324.2 5.75 327.1 10.1 330.4 18.4 330.4 24.8 330.15 30.4 328.7 37.65 326.75 45.75 323.15 55.75 318.7 65.2 307.4 75.6 294.75 83.7 280.05 93.15 263.25 101.05 244.45 109.35 224.85 116.7 203.6 124.25 181.7 130.3 160.6 137.2 137.1 141.7 118.6
L 147.2 148.05
Q 155.3 188.9 160.3 211.9 166.05 239.1 174.75 276.15 174.55 277.6 174.65 278.25
L 174.95 280.4
Q 175.8 285.6 180.2 288.45 185.2 291.45 190.7 291.15 195.6 291.15 199.85 288.35 204.65 285.15 208.35 280.8 212.85 275.5 216.45 269.75 220.8 262.75 224.2 256.55
L 233.55 229.45
Q 237.4 218.4 246.25 191.8
L 260.7 147.85
Q 266.85 129.25 275.7 101.9
L 290.8 307.95
Q 293.25 319.85 297.8 324.4 301.85 329 308.35 329 319.85 329 325.6 325.5 331.2 322.5 333.35 316.55 335.35 310.7 334.7 304.2 334.2 298.35 332.7 290.6
L 326.55 260.8
M 464.4 160.6
Q 456.6 158.9 448.3 158.9 414.9 158.9 391.3 182.55 367.7 206.05 367.7 239.45 367.7 246.9 369.2 254.65
L 379.5 247.5
Q 393.2 238.15 412.7 238.15 432.05 238.15 445.75 247.5
L 462.7 259.1
Q 475 267.6 492.55 267.6 510 267.6 522.35 259.1
L 527.25 255.7
Q 533.95 223.05 515.55 195.2 497.15 167.3 464.4 160.6
M 1197.65 145
Q 1203.9 145.3 1209.25 142 1213.5 139.45 1215.6 134.8 1217.55 130.2 1217.55 125.2 1217.65 120.5 1216.35 115.75 1213.9 107.85 1207.45 102.95 1201.05 98 1188.2 98 1181.5 97.65 1175.75 100.85 1171.35 103.5 1168.7 108.3 1166.25 112.95 1166.25 118.3 1165.95 123.4 1167.65 128.95 1170.5 136.5 1177.35 140.5 1184.05 145 1197.65 145
M 1646.2 169.45
Q 1643.1 167.75 1635.2 167.75 1620.85 167.65 1612.9 172.2 1604.4 177.3 1601.4 186.9 1590.1 218.3 1587.65 251.9 1587.2 252.25 1586.7 252.65 1582.15 256.35 1574.9 261.25 1567.45 266.35 1558.75 271.65 1549.5 277.4 1539.8 281.9 1530.25 286.55 1519.4 289.65 1509.7 292.5 1498.75 292.75 1490.25 292.95 1482.6 289 1475.9 285.6 1472.6 278.8 1499.2 267.4 1515.35 256.35 1532.15 244.95 1540.35 234.55 1548.95 223.9 1550.55 213.5 1552.35 203.6 1549.4 193.7 1545.15 178.5 1532.8 168.8 1521.1 159.75 1502.8 159.75 1487.05 159.45 1471.95 165 1459.2 169.55 1448.75 178.15 1438.35 186.8 1431.35 198.4 1424.5 209.45 1421.1 221.15 1417.7 232.85 1417.5 244.45 1417.35 250.1 1418.1 255.7 1417 256.3 1415.9 256.9 1408.9 260.5 1400.9 262.65 1392.6 264.65 1385.15 264.65 1377.95 264.85 1372.85 259.85 1376.85 244.85 1380.4 235.5 1383.8 226.25 1386.65 216.8 1389 209.1 1389.65 200.4 1390.05 191.8 1387.3 183.05 1384.85 175 1379.2 168.8 1373.25 162.55 1364.75 162.85 1359.4 162.85 1356 168.15 1352.3 174.35 1350.05 182.1 1347.5 190.6 1345.6 201.7
L 1341.15 223.9
Q 1338.6 235.95 1335.6 245.8 1332.6 255.8 1327.6 264.45 1323.7 274.2 1317.75 282.4 1312.85 288.9 1307.1 288.9 1305.3 288.8 1304.1 287.2 1302.3 285.4 1301.05 283.15
L 1298.5 278.25
Q 1297.2 275.5 1296.8 274.1 1293.6 263.15 1292.65 251.65 1291.65 239.45 1291.65 226.55 1291.65 213.7 1292.3 201.05 1292.95 188.3 1292.95 177.55 1293.15 175.1 1292.5 173.15 1291.65 170.3 1289.35 167.85 1286.9 165.3 1284 163.5 1281.05 161.7 1277.85 160.75 1274.95 159.9 1271.8 159.65 1264.95 159.9 1260 163.9 1254.65 167.95 1253.05 177.55
L 1252.75 197.55
Q 1252.55 212.55 1252.95 225.1 1253.2 237.15 1254.6 250.8
L 1248.8 259.2
Q 1244.45 265.3 1239.75 270.4 1235.2 275.7 1229.45 280.2 1224.25 284.2 1218.05 287.2 1212.2 289.85 1206.15 289.85 1201.25 290.05 1197.1 287.95 1193.6 286.05 1191.7 279.95 1190 274.1 1190 267.6 1190 261.25 1190.85 253.9 1191.6 247.4 1192.95 240.3
L 1200.75 195.5
Q 1201.25 193.5 1200.95 191.45
L 1200.2 187.45
Q 1197.65 178.6 1189.9 173.4 1182.85 168.05 1173.95 167.85 1168.95 167.75 1164.8 170.5 1160.2 173.9 1159.05 179.55
L 1156.5 195.3
Q 1155 204.15 1154.45 207.75 1153.6 213.25 1153.4 216.7 1152.8 223.35 1151.85 228.9 1150.55 223.85 1146.25 220.2 1143.5 217.75 1136.3 216.25 1130.1 214.85 1125.1 214.85
L 1121.6 214.85
Q 1125.85 196.9 1125.85 190.1 1125.85 179.15 1119.8 173.4 1113.6 167.75 1102.45 167.75 1090 167.75 1074.8 175.6 1059.7 183.5 1043.65 202.1 1027.45 220.95 1014.8 250.05 1015.75 238.8 1018.65 224.75 1021 214.85 1024.9 200.7 1030.75 181.8 1030.75 176.05 1030.75 171.25 1027.7 169.45 1024.25 167.75 1016.7 167.75 1002.45 167.75 994.3 172.45 985.65 177.65 982.8 187 972.4 216.25 969.55 246.6 961.85 254.6 953.75 261.25 944.4 269 934.4 275.5 924.7 281.9 913.65 286.75 911.95 288.45 909.5 289.1 907.9 289.45 906.1 289.45 904.1 289.55 902.15 288.15 900.9 287 900.15 284.95 898.65 280.6 900.45 276.65 901.55 272.2 903.35 266.35
L 907.6 252.75
Q 910.15 244.85 912.05 236.9 914.2 228.7 915.35 219.65 916.55 210.5 916.2 202.1 916.1 193.7 913.45 185.2 909.5 171.45 899.85 165.75 889.95 159.9 878.65 160 868.15 160 857.9 163.4 848.25 166.35 838.25 172 829.65 176.9 822.1 183.9 815.8 189.75 812.2 196.9 812.85 193.15 812.4 189.65 812.1 186.35 811.1 183.4 809.3 176.25 803.45 171.8 798.7 168.05 792.85 167.85 786.25 167.85 781.35 172.55 776.35 177.3 774.85 187 774.2 191.8 771.55 205.95
L 768.65 223.1
Q 767.9 224 767.1 224.95 762.6 230.4 757.5 234.75 752.6 239.1 747.3 241.9 742.65 244.65 737.2 244.65 733.25 244.65 730.2 243.5 726.25 242.1 723.5 239.65 724.1 230.5 723.15 221.25 722.3 213.15 719.95 205.7 716.15 193.15 706.9 183.4 698.4 174.65 687.65 168.9 677.2 163.6 666.05 161.15 656.15 159.15 645.95 158.9 624.9 158.9 610.2 165.4 595.85 171.45 585.4 182.55 575.65 193.05 570.4 206.45 565.2 219.75 563.3 233.4 561.5 247 562.55 259.65 563.3 270.6 566.6 281.55 570.65 294.45 579.45 304.3 587.45 313.25 597.85 319.55 606.9 324.95 617.2 327.85 625.2 330.05 633.5 330.4 649.35 330.6 665.2 326.1 678.3 322.4 690.3 314.3 700.7 307.3 708.7 296.35 716.35 285.4 720.5 273.05 727.2 277 734.1 279 740.5 280.8 746.75 280.8 753.75 281 760 277.9 759.85 278.9 759.75 279.85 758.25 291.75 757.95 299.65 757.5 308.25 758.6 312.1 760.9 319.4 766.65 324.2 772.75 329.3 780.3 329.1 787.85 329.1 791.15 324.3 794.85 318.9 796.35 312.2 798.05 304.85 799 296.45 799.95 288.35 802.2 280.5
L 810.8 255.6
Q 815.5 242 822.8 229.1 829.65 216.9 839.95 208.05 850.25 199.25 863.9 199.55 867.6 199.35 870.25 201.9 872.9 204.25 873.9 207.65 875.05 212.75 874 217.55 873.05 223.5 871.1 231.35
L 866.85 247.85
Q 864.75 255.4 862.6 265.3 860.9 273.35 860.25 282.3 859.5 289.85 861.35 297.6 861.45 298.25 861.95 300.9
L 862.7 304
Q 866.45 315.9 873.75 322.5 881.1 329.2 892.8 329.2 897.9 329 901.2 328.25 905.25 327.5 910.8 325.6 923.85 321.45 936.55 314.85 946.5 309.55 956 302.5 963 297.15 969.25 291.5 970.65 307.05 974.5 315.7 980.55 329.4 995.35 329.4 1007.7 329.4 1013.2 323.9 1018.65 318.7 1023 302 1028.75 281.25 1038.2 262.1 1045.65 246.35 1056.8 231.8 1066.3 220.3 1071.7 220.3 1073.65 220.3 1075 221.7 1076.6 223.6 1076.4 225.8 1076.3 229.1 1075.55 233.4 1074.8 241.55 1074.8 247.4 1074.8 259.2 1082.35 265.9 1090.45 273.15 1100.85 272.85 1108.1 272.85 1115.65 270.7 1123.7 268.35 1129.15 264.2 1136.7 258.6 1140.85 254.65 1146.2 249.65 1149 244.9 1148.6 247.9 1148.2 251.25 1147.1 260.8 1147.25 270.5 1147.55 281.15 1150.55 290.8 1156.6 310.5 1169.65 319.95 1183.5 329.65 1200.4 329.3 1212.55 329.3 1223.7 324.3 1234.55 319.3 1244 311.15 1253.7 303.05 1262 292.2 1262.55 291.5 1263.15 290.8 1265.9 297.9 1270.2 304 1275.4 311.85 1282.85 318.05 1289.75 323.55 1297.75 326.45 1305.2 329.2 1313.25 329.2 1320.8 329.4 1327.85 326.75 1334.95 324.1 1340.5 319.1 1352.1 309 1360.5 289.45 1369.85 294.65 1379.1 298.15 1385.6 300.6 1392.6 300.7 1412.6 300.7 1426.75 293.35 1429.35 292 1431.85 290.5 1438.6 301.3 1448.35 310.05 1458.15 318.9 1469.95 324 1481.65 329.2 1494.8 329.2 1510.15 329.2 1524.6 325.05 1538.65 321.1 1551.75 314.55 1563.3 308.9 1575.15 300.7 1581.85 296.05 1587.75 291.35 1589.15 306.95 1593 315.6 1599.05 329.2 1613.85 329.2 1626.3 329.2 1631.8 323.8 1637.25 318.25 1641.5 301.75 1647.25 281.35 1656.7 262 1664.45 245.6 1675.45 231.65 1684.7 220.2 1690.2 220.2 1692.25 220.2 1693.5 221.55 1695.1 223.25 1694.9 225.6 1694.8 228.15 1694.15 233.25 1693.3 240.7 1693.3 247.3 1693.3 258.9 1700.85 265.8 1708.7 272.95 1719.35 272.75 1726.5 272.75 1734.15 270.5 1742.2 268.05 1747.65 264 1755.1 258.5 1759.35 254.45 1765.6 248.35 1768.5 242.75 1770.75 238.05 1770.85 233.15 1770.85 225.2 1764.75 219.95 1762 217.55 1754.8 216.05 1748.5 214.65 1743.6 214.75
L 1740.1 214.75
Q 1744.35 196.8 1744.35 190.1 1744.35 179 1738.3 173.4 1732.35 167.75 1720.95 167.75 1708.3 167.75 1693.3 175.6 1678.1 183.5 1662.15 202 1646.3 220.3 1633.3 250.05 1634.35 238.05 1637.25 224.65 1639.05 216.15 1643.4 200.6 1649.25 181.7 1649.25 175.95 1649.25 171.05 1646.2 169.45
M 1504.4 190.7
Q 1507.25 191.35 1509.8 193.4 1512.5 195.3 1513.55 198.7 1514.8 203.5 1512.8 208.25 1510.65 213.9 1502.8 220.1 1500.05 222.3 1496.85 225.3
L 1474.4 243.8
Q 1468 248.95 1461.5 252.85 1461.4 252.3 1461.35 251.7 1461.6 245.9 1461.95 242.4 1462.6 235.8 1464.2 229.25 1466 221.9 1468.35 215.4 1470.9 208.6 1475.35 202.85 1479.6 197.3 1485.9 193.9 1492.8 190.5 1500.35 190.6
L 1504.4 190.85 1504.4 190.7
M 667.95 208.5
Q 671.45 212.55 673.7 217.4 675.95 222.3 677.45 226.9 681.15 238.25 680.2 249.95 679.45 260.6 674.15 270.3 668.9 279.2 660.4 284.85 651.6 290.8 640.95 290.6 634.35 290.8 628.6 287.6 623.4 284.65 619.65 280.2 616.05 275.9 613.6 270.6 611.25 265.8 609.8 261.15 606.05 249.85 607.1 238.35 608.1 227.85 613.3 218.6 618.2 210 627 204.45 636.05 198.8 646.7 199
L 646.8 199
Q 653.05 198.9 659.25 201.7 664.45 204.35 667.95 208.5 Z"/>
</g>
</defs>

<g transform="matrix( 1, 0, 0, 1, 0,0) ">
<use xlink:href="#Layer0_0_FILL"/>
</g>
</svg>
