
<svg xmlns="http://www.w3.org/2000/svg" version="1.1" xmlns:xlink="http://www.w3.org/1999/xlink" preserveAspectRatio="none" x="0px" y="0px" viewBox="0 0 315 114">
<defs>
<linearGradient id="Gradient_1" gradientUnits="userSpaceOnUse" x1="352.4" y1="256.70000000000005" x2="352.4" y2="84.4" spreadMethod="pad">
<stop  offset="0%" stop-color="#AEB5D2"/>

<stop  offset="100%" stop-color="#D1DFFC"/>
</linearGradient>

<radialGradient id="Gradient_2" gradientUnits="userSpaceOnUse" cx="0" cy="0" r="139.95" fx="0" fy="0" gradientTransform="matrix( 1, 0, 0, -1, 354.8,231.85) " spreadMethod="pad">
<stop  offset="0%" stop-color="#DBA8FF"/>

<stop  offset="100%" stop-color="#8941EE"/>
</radialGradient>

<linearGradient id="Gradient_3" gradientUnits="userSpaceOnUse" x1="348.85" y1="234.8" x2="348.85" y2="84.89999999999999" spreadMethod="pad">
<stop  offset="0%" stop-color="#DDA9FF"/>

<stop  offset="100%" stop-color="#9C38F1"/>
</linearGradient>

<linearGradient id="Gradient_4" gradientUnits="userSpaceOnUse" x1="348.85" y1="231.875" x2="348.85" y2="86.425" spreadMethod="pad">
<stop  offset="0%" stop-color="#FFBCEA"/>

<stop  offset="100%" stop-color="#EC29C0"/>
</linearGradient>

<filter id="Filter_1" x="-20%" y="-20%" width="140%" height="140%" color-interpolation-filters="sRGB">
<feColorMatrix in="SourceGraphic" type="matrix" values="0 0 0 0 255 0 0 0 0 255 0 0 0 0 255 0 0 0 255 0" result="result1"/>

<feComposite in2="result1" in="BackgroundImage" operator="in" result="result2"/>

<feBlend mode="multiply" in2="result2" in="SourceGraphic" result="result3"/>
</filter>

<filter id="Filter_2" x="-20%" y="-20%" width="140%" height="140%" color-interpolation-filters="sRGB">
<feColorMatrix in="SourceGraphic" type="matrix" values="1 0 0 0 0 0 1 0 0 0 0 0 1 0 0 0 0 0 0.24 0" result="result1"/>
</filter>

<g id="Layer1_0_MEMBER_0_FILL">
<path fill="url(#Gradient_1)" stroke="none" d="
M 537.9 165.2
Q 536.3 143.05 530.8 125.2 525.15 106.4 517.5 99.7 507.45 90.85 457.35 86.95 412.8 83.45 351.05 84.65 291.5 86 245.85 90.85 197 96.2 188.65 103.3 172.95 116.75 167.75 165.6 162.75 213.4 173.25 235.25 174.3 237.4 177.25 239.15 191.1 247.45 243.05 252.45 291.1 256.85 352.55 256.75 414.85 256.6 460.85 251.9 511.6 246.65 522.85 237.4
L 523.95 236.35
Q 541.65 217.8 537.9 165.2 Z"/>
</g>

<g id="Layer1_0_MEMBER_1_FILL">
<path fill="#FFFFFF" stroke="none" d="
M 499.45 363.35
Q 503.85 364.9 510.05 366.25 529.9 370.4 560 370.4 590.05 370.4 605.95 366.25 613.9 364.15 615.85 362.05
L 496.25 362.05 499.45 363.35 Z"/>
</g>

<g id="buttons_layers_highlight_4_0_Layer0_0_FILL">
<path fill="#DCDFEB" stroke="none" d="
M 128.75 5.75
L 126.65 0 3.25 5.75 0.3 10.85 0 12.75
Q 5.15 15.85 24.5 17.7 42.4 19.35 65.3 19.3 88.5 19.25 105.65 17.5 124.55 15.55 128.75 12.1
L 128.75 5.75 Z"/>
</g>

<g id="Layer1_0_MEMBER_3_FILL">
<path fill="url(#Gradient_2)" stroke="none" d="
M 529.45 158.05
Q 528.05 136.8 522.8 119.7 517.45 101.75 510.1 95.25 500.45 86.75 451.7 84.35 408.7 82.1 348.3 85.05 290.45 87.9 245.75 93.85 198.4 100.2 190.35 107 175.05 120.15 169.4 159.75 163.9 199.05 173.8 219.7 178.3 229.05 228.95 235.55 275.3 241.5 339.95 242.9 405.3 244.3 453.5 240.2 506.95 235.7 516.15 226.05 533.15 208.25 529.45 158.05 Z"/>
</g>

<g id="Layer1_0_MEMBER_4_FILL">
<path fill="url(#Gradient_3)" stroke="none" d="
M 528.6 153.65
Q 525.35 109.8 509.5 96.4 499.9 88.15 451.4 85.75 408.4 83.65 348.3 86.5 290.75 89.15 246.35 94.95 198.95 101.05 191.05 107.7 175.75 120.3 170.4 158.05 165 195.25 174.75 215.05 179.3 224.1 229.65 229.45 275.45 234.55 340.1 234.85 404.85 234.95 452.95 230.3 506.1 225.2 515.3 215.9 532 198.75 528.6 153.65 Z"/>
</g>

<g id="Layer1_0_MEMBER_5_FILL">
<path fill="url(#Gradient_4)" stroke="none" d="
M 524.8 153.1
Q 521.55 110.65 506 97.65 496.5 89.75 449.15 87.3 407.15 85.35 348.3 88.05 292 90.6 248.45 96.25 202.2 102.15 194.45 108.55 179.45 120.85 174.2 157.35 168.95 193.55 178.6 212.9 182.95 221.7 232.35 226.9 277.3 231.7 340.25 232 403.75 232.3 450.7 227.6 502.75 222.65 511.65 213.6 528.05 197.05 524.8 153.1 Z"/>
</g>

<g id="buttons_layers_highlight_2_0_Layer0_0_FILL">
<path fill="#FFFFFF" stroke="none" d="
M 82.35 20.6
Q 94.5 20.05 106.25 17.4 112.1 16.05 115.55 14.8 114.6 10.7 112.55 6.95
L 110.7 4.05
Q 87.1 -2.8 41.2 1.85 18.25 4.15 0 7.85 2.45 7.7 6.9 7.75 15.85 7.85 26.1 8.85 32.15 9.45 53.1 15.7 71.35 21.1 82.35 20.6 Z"/>
</g>

<g id="buttons_layers_hightlight_3_0_Layer0_0_FILL">
<path fill="#FFFFFF" stroke="none" d="
M 110.15 4.2
Q 104.55 -0.45 92.2 0.05 81.99453125 0.494921875 63.5 4.45 50.61953125 7.2537109375 38.1 8.15 58.8931640625 9.1451171875 72.8 8.15 97.95078125 6.35 110.15 4.2 Z"/>
</g>

<g id="Layer1_0_MEMBER_8_FILL">
<path fill="#FFFFFF" stroke="none" d="
M 189.35 119.2
Q 188.21953125 126.57265625 195.15 122.7 200.66015625 119.6837890625 209.6 107.35 203.7716796875 108.9521484375 200.2 110.7 194 113.7 189.35 119.2 Z"/>
</g>

<g id="Layer1_0_MEMBER_9_FILL">
<path fill="#FFFFFF" stroke="none" d="
M 185.65 131.4
L 184.95 128.7
Q 183.55 128.85 180.7 137.3 180.87734375 139.1234375 181 140.5 181.1794921875 141.86953125 183.05 141.35 184.9576171875 140.841796875 185.5 137.45 186.1 134.75 185.65 131.4 Z"/>
</g>

<g id="Layer1_0_MEMBER_10_FILL">
<path fill="#FFFFFF" stroke="none" d="
M 492.75 217.9
Q 496.714453125 218.35390625 503.95 216 511.194921875 213.698828125 512.9 212.3 514.75 210.6 515.6 206.95 516.698828125 202.8490234375 514.35 203.3 512.055859375 203.803125 500.4 210.65 488.787890625 217.4951171875 492.75 217.9 Z"/>
</g>
</defs>

<g transform="matrix( 1, 0, 0, 1, 157.1,58) " enable-background="new">
<g transform="matrix( 0.845916748046875, 0, 0, 0.6576385498046875, -297.65,-112.85) ">
<use xlink:href="#Layer1_0_MEMBER_0_FILL"/>
</g>

<g transform="matrix( 2.392791748046875, 0, 0, 1.8601531982421875, -1335.1,-639.65) ">
<use xlink:href="#Layer1_0_MEMBER_1_FILL"/>
</g>

<g filter="url(#Filter_1)" transform="matrix( 1, 0, 0, 1, 0,0) ">
<g transform="matrix( 2.2708282470703125, 0, 0, 1.765350341796875, -147.75,21.7) ">
<g transform="matrix( 1, 0, 0, 1, 0,0) ">
<use xlink:href="#buttons_layers_highlight_4_0_Layer0_0_FILL"/>
</g>
</g>
</g>

<g transform="matrix( 0.845916748046875, 0, 0, 0.6576385498046875, -297.65,-112.85) ">
<use xlink:href="#Layer1_0_MEMBER_3_FILL"/>
</g>

<g transform="matrix( 0.845916748046875, 0, 0, 0.6576385498046875, -297.65,-112.85) ">
<use xlink:href="#Layer1_0_MEMBER_4_FILL"/>
</g>

<g transform="matrix( 0.845916748046875, 0, 0, 0.6576385498046875, -297.65,-112.85) ">
<use xlink:href="#Layer1_0_MEMBER_5_FILL"/>
</g>

<g transform="matrix( 2.392791748046875, 0, 0, 1.8601531982421875, -133.9,-56.05) ">
<g transform="matrix( 1, 0, 0, 1, 0,0) ">
<use filter="url(#Filter_2)" xlink:href="#buttons_layers_highlight_2_0_Layer0_0_FILL"/>
</g>
</g>

<g transform="matrix( 2.392791748046875, 0, 0, 1.8601531982421875, -133.5,20.05) ">
<g transform="matrix( 1, 0, 0, 1, 0,0) ">
<use filter="url(#Filter_2)" xlink:href="#buttons_layers_hightlight_3_0_Layer0_0_FILL"/>
</g>
</g>

<g transform="matrix( 0.845916748046875, 0, 0, 0.6576385498046875, -297.65,-112.85) ">
<use xlink:href="#Layer1_0_MEMBER_8_FILL"/>
</g>

<g transform="matrix( 0.845916748046875, 0, 0, 0.6576385498046875, -297.65,-112.85) ">
<use xlink:href="#Layer1_0_MEMBER_9_FILL"/>
</g>

<g transform="matrix( 0.845916748046875, 0, 0, 0.6576385498046875, -297.65,-112.85) ">
<use xlink:href="#Layer1_0_MEMBER_10_FILL"/>
</g>
</g>
</svg>
