
<svg xmlns="http://www.w3.org/2000/svg" version="1.1" xmlns:xlink="http://www.w3.org/1999/xlink" preserveAspectRatio="none" x="0px" y="0px" width="1614px" height="1312px" viewBox="0 0 1614 1312">
<defs>
<linearGradient id="Gradient_1" gradientUnits="userSpaceOnUse" x1="-0.02500000000009095" y1="651.8" x2="1605.525" y2="651.8" spreadMethod="pad">
<stop  offset="0%" stop-color="#24142D"/>

<stop  offset="100%" stop-color="#38214C"/>
</linearGradient>

<g id="menu_pulldown_bg_0_Layer0_0_FILL">
<path fill="url(#Gradient_1)" stroke="none" d="
M 1605.55 45.9
Q 1605.55 26.95 1583.7 13.45 1582.95 13.05 1582.2 12.65 1560.75 0 1530.9 0
L 74.65 0
Q 44.75 0 23.3 12.65 22.65 13.05 21.9 13.45 0 26.95 0 45.9
L 0 1257.8
Q 0 1276.75 21.9 1290.1 43.75 1303.65 74.65 1303.65
L 1530.9 1303.65
Q 1561.8 1303.65 1583.7 1290.1 1605.55 1276.75 1605.55 1257.8
L 1605.55 45.9 Z"/>
</g>

<g id="Layer7_0_FILL">
<path fill="#CCCCCC" fill-opacity="0.1568627450980392" stroke="none" d="
M 1206 388.65
Q 1204.55 389.45 1203.15 390.2 1190.5 397.15 1178.65 405.45 1155.6 419.95 1115.3 452.95 1102.8 463.45 1091.1 475.35 1090.45 477.55 1089.05 478.35 1073.85 493.8 1061.7 511.6 1006.3 554.95 992.9 606.85 979.45 658.6 980.85 687.2 942.5 810.75 977.4 934.3 1012.3 1057.75 1081.1 1086.65 1111.1 1121.3 1146.5 1149.4 1200.35 1190.95 1268.6 1215.65 1281.6 1219.4 1333.1 1242.35 1384.55 1265.3 1460.9 1243.45 1485.15 1241.15 1508.65 1237.4 1523.5 1234.75 1539.1 1229.85 1577.6 1219.35 1613.2 1203.6
L 1613.3 833.7
Q 1594.35 834.15 1576.8 822.5 1557.55 809.7 1551.45 789.8 1545.3 769.95 1555.8 754.55 1566.4 739.15 1590.05 728.05 1602.1 722.5 1613.35 721.95
L 1613.45 371.85
Q 1584.7 359 1553.3 349.85 1396.9 280.85 1284.2 354.95 1245.25 367.15 1206 388.65
M 1266.1 486.25
Q 1229.45 477.2 1279.3 439.85 1329.25 402.55 1353.65 397.65 1378.05 392.85 1398.55 406.45 1419.05 420.1 1423.5 444.25 1428.1 468.4 1414.05 488.85 1400.05 509.4 1375.7 514.15 1351.3 519 1327.05 507.2 1302.75 495.3 1266.1 486.25
M 1058.35 850.85
Q 1082.05 816.25 1133.15 814.7 1184.25 813.1 1232.9 845.5 1281.5 877.9 1299.1 925.2 1316.65 972.65 1285.5 1033.55 1254.25 1094.4 1205.2 1088.7 1156.2 1082.85 1113.1 1031.5 1069.95 980.15 1052.35 932.8 1034.65 885.5 1058.35 850.85 Z"/>
</g>

<path id="menu_pulldown_bg_0_Layer0_0_1_STROKES" stroke="#666666" stroke-width="9" stroke-linejoin="round" stroke-linecap="round" fill="none" d="
M 1530.9 1303.65
L 74.65 1303.65
Q 43.75 1303.65 21.9 1290.1 0 1276.75 0 1257.8
L 0 45.9
Q 0 26.95 21.9 13.45 22.65 13.05 23.3 12.65 44.75 0 74.65 0
L 1530.9 0
Q 1560.75 0 1582.2 12.65 1582.95 13.05 1583.7 13.45 1605.55 26.95 1605.55 45.9
L 1605.55 1257.8
Q 1605.55 1276.75 1583.7 1290.1 1561.8 1303.65 1530.9 1303.65 Z"/>
</defs>

<g transform="matrix( 1, 0, 0, 1, 4.5,4.5) ">
<g transform="matrix( 1, 0, 0, 1, 0,0) ">
<use xlink:href="#menu_pulldown_bg_0_Layer0_0_FILL"/>

<use xlink:href="#menu_pulldown_bg_0_Layer0_0_1_STROKES"/>
</g>
</g>

<g transform="matrix( 1, 0, 0, 1, 0,0) ">
<use xlink:href="#Layer7_0_FILL"/>
</g>
</svg>
