
<svg xmlns="http://www.w3.org/2000/svg" version="1.1" xmlns:xlink="http://www.w3.org/1999/xlink" preserveAspectRatio="none" x="0px" y="0px" width="1868px" height="2432px" viewBox="0 0 1868 2432">
<defs>
<linearGradient id="Gradient_1" gradientUnits="userSpaceOnUse" x1="959.95" y1="2425.9" x2="959.95" y2="-6.099999999999909" spreadMethod="pad">
<stop  offset="0%" stop-color="#48094C"/>

<stop  offset="100%" stop-color="#000033"/>
</linearGradient>

<filter id="Filter_1" x="-20%" y="-20%" width="140%" height="140%" color-interpolation-filters="sRGB">
<feColorMatrix in="SourceGraphic" type="matrix" values="1 0 0 0 0 0 1 0 0 0 0 0 1 0 0 0 0 0 0.24 0" result="result1"/>
</filter>

<filter id="Filter_2" x="-20%" y="-20%" width="140%" height="140%" color-interpolation-filters="sRGB">
<feColorMatrix in="SourceGraphic" type="matrix" values="1 0 0 0 0 0 1 0 0 0 0 0 1 0 0 0 0 0 0.28 0" result="result1"/>
</filter>

<filter id="Filter_3" x="-20%" y="-20%" width="140%" height="140%" color-interpolation-filters="sRGB">
<feColorMatrix in="SourceGraphic" type="matrix" values="1 0 0 0 0 0 1 0 0 0 0 0 1 0 0 0 0 0 0.19 0" result="result1"/>
</filter>

<filter id="Filter_4" x="-20%" y="-20%" width="140%" height="140%" color-interpolation-filters="sRGB">
<feColorMatrix in="SourceGraphic" type="matrix" values="1 0 0 0 0 0 1 0 0 0 0 0 1 0 0 0 0 0 0.16 0" result="result1"/>
</filter>

<filter id="Filter_5" x="-20%" y="-20%" width="140%" height="140%" color-interpolation-filters="sRGB">
<feColorMatrix in="SourceGraphic" type="matrix" values="1 0 0 0 0 0 1 0 0 0 0 0 1 0 0 0 0 0 0.14 0" result="result1"/>
</filter>

<g id="background_0_Layer4_0_FILL">
<path fill="url(#Gradient_1)" stroke="none" d="
M 1920.2 -5.7
L 0 -5.7 0 2426.3 1920.2 2426.3 1920.2 -5.7 Z"/>
</g>

<g id="planet_blue_cut_off_0_Layer0_0_FILL">
<path fill="#2D7990" stroke="none" d="
M 152.35 357.7
Q 155.782421875 359.8958984375 160.1 361.65 183.5 358.7 202.5 346.45 213.2 332 211.85 308.8 211.05 284.2 199.95 273.65 188.65 261.7 172.9 271.05 160.2681640625 285.9037109375 152.35 298.5
L 152.35 357.7
M 214.6 88.4
Q 237.35 91.2 241.05 71 246.2 49.65 226.15 38.4 206.1 26.5 175.75 32.75
L 152.35 42.35 152.35 99.25
Q 185.360546875 79.4603515625 214.6 88.4
M 424.05 274.95
Q 429.25 245.7 417.1 227.85 405.1 211.5 383.55 215.75 361.7 222.35 343.2 245.65 340.6 250.45 338.3 254.6 285.25 299.3 316.45 331.4 337.35 365.55 357.85 360.55 380.6 355.55 398.55 330.35
L 424.05 274.95 Z"/>

<path fill="#45BADD" stroke="none" d="
M 446.2 165
Q 430.5 137.05 409.25 107.65 397.85 85.95 360.4 48.45 322.95 10.9 224.55 1.05 184.410546875 -2.9251953125 152.35 8.05
L 152.35 42.35 175.75 32.75
Q 206.1 26.5 226.15 38.4 246.2 49.65 241.05 71 237.35 91.2 214.6 88.4 185.360546875 79.4603515625 152.35 99.25
L 152.35 298.5
Q 160.2681640625 285.9037109375 172.9 271.05 188.65 261.7 199.95 273.65 211.05 284.2 211.85 308.8 213.2 332 202.5 346.45 183.5 358.7 160.1 361.65 155.782421875 359.8958984375 152.35 357.7
L 152.35 428.35
Q 186.2841796875 445.56171875 212.65 444.9 262.4 443.65 273.3 432.65 294.35 428.15 313.95 419.85 343.25 407.05 368.85 384.5 373.35 380 394.45 363.95 415.5 347.95 423.7 311.55 428.25 301 432 290.5 434.3 283.7 435.8 276.2 440.25 257.4 441.8 238.6 441.8 231.85 441.8 225.8 441.8 224.3 441.8 223.55 441.8 214.55 441.05 205.5 440.25 194.2 446.2 165
M 417.1 227.85
Q 429.25 245.7 424.05 274.95
L 398.55 330.35
Q 380.6 355.55 357.85 360.55 337.35 365.55 316.45 331.4 285.25 299.3 338.3 254.6 340.6 250.45 343.2 245.65 361.7 222.35 383.55 215.75 405.1 211.5 417.1 227.85 Z"/>
</g>

<g id="planet_grey_cut_off_0_Layer0_0_FILL">
<path fill="#959191" stroke="none" d="
M 413.05 249.6
Q 426.8615234375 242.3740234375 433.25 229.85
L 360.8 190.15
Q 357.187890625 197.6267578125 356.55 207.45 355.3 226.7 361.55 239.05 367.8 251.35 382.85 254.4 397.95 257.5 413.05 249.6
M 305.8 480.75
Q 267.5 500.8 250.4 534.5 233.25 568.2 247.25 595.85 261.3 623.5 298.25 628.85 335.2 634.25 383.85 624.5 432.45 614.8 453.65 585.1 474.8 555.35 446.4 513.45 418 471.6 381 466.15 344.05 460.75 305.8 480.75
M 141.7 270.45
Q 147.25 252.95 138.9 236.55 130.65 220.2 113.35 214.6 96.1 208.9 79.95 217.35 63.85 225.8 58.3 243.35 52.8 260.9 59.25 306.55 65.75 352.15 84.65 331.6 103.55 311.05 119.9 299.5 136.15 288 141.7 270.45 Z"/>

<path fill="#CCCCCC" stroke="none" d="
M 433.25 229.85
Q 426.8615234375 242.3740234375 413.05 249.6 397.95 257.5 382.85 254.4 367.8 251.35 361.55 239.05 355.3 226.7 356.55 207.45 357.187890625 197.6267578125 360.8 190.15
L 133.85 65.7
Q 115.3486328125 79.792578125 98.25 96.9 -2.05 173.8 5.95 273.2 0 302.8 0 335.9 0 337.1 0 338.3 0 348.95 1.2 359.6 2.4 379.7 9.5 417.55 11.85 429.4 15.4 441.2 16.6 442.4 16.6 443.6 21.25 458.95 28.45 473.15 36.9 524.5 65.75 551.6 94.55 578.7 113.6 587.95 180.1 656.7 272.6 677.95 365.05 699.2 408.2 664.85 441.35 657.75 472.15 644.75 518.25 624.6 558.5 589.1 565.55 582 598.75 556.75 631.9 531.55 644.85 474.3 651.95 457.75 657.85 441.2 661.45 430.6 663.8 418.75 670.6375 390.0419921875 673.1 361.35
L 433.25 229.85
M 138.9 236.55
Q 147.25 252.95 141.7 270.45 136.15 288 119.9 299.5 103.55 311.05 84.65 331.6 65.75 352.15 59.25 306.55 52.8 260.9 58.3 243.35 63.85 225.8 79.95 217.35 96.1 208.9 113.35 214.6 130.65 220.2 138.9 236.55
M 250.4 534.5
Q 267.5 500.8 305.8 480.75 344.05 460.75 381 466.15 418 471.6 446.4 513.45 474.8 555.35 453.65 585.1 432.45 614.8 383.85 624.5 335.2 634.25 298.25 628.85 261.3 623.5 247.25 595.85 233.25 568.2 250.4 534.5 Z"/>
</g>

<g id="planet_blue_0_Layer0_0_FILL">
<path fill="#45BADD" stroke="none" d="
M 446.2 165
Q 430.5 137.05 409.25 107.65 397.85 85.95 360.4 48.45 322.95 10.9 224.55 1.05 126.1 -8.7 76.25 71.6 12.5 120.5 17.6 183.7 -1.15 194.95 0.05 206.45 1.3 218 7.55 224.9 13.85 231.85 14.55 238.6 15.3 251.4 19.8 275.45 21.35 283 23.6 290.5 24.35 291.2 24.35 292 27.35 301.75 31.9 310.8 37.25 343.45 55.55 360.65 73.9 377.9 86.05 383.75 162.85 446.15 212.65 444.9 262.4 443.65 273.3 432.65 294.35 428.15 313.95 419.85 343.25 407.05 368.85 384.5 373.35 380 394.45 363.95 415.5 347.95 423.7 311.55 428.25 301 432 290.5 434.3 283.7 435.8 276.2 440.25 257.4 441.8 238.6 441.8 231.85 441.8 225.8 441.8 224.3 441.8 223.55 441.8 214.55 441.05 205.5 440.25 194.2 446.2 165
M 417.1 227.85
Q 429.25 245.7 424.05 274.95
L 398.55 330.35
Q 380.6 355.55 357.85 360.55 337.35 365.55 316.45 331.4 285.25 299.3 338.3 254.6 340.6 250.45 343.2 245.65 361.7 222.35 383.55 215.75 405.1 211.5 417.1 227.85
M 241.05 71
Q 237.35 91.2 214.6 88.4 169.3 74.55 114.95 129.65 129.15 136.9 108.6 126.8 89.95 115.2 92.3 95.05 95.55 73.7 119.35 55.9
L 175.75 32.75
Q 206.1 26.5 226.15 38.4 246.2 49.65 241.05 71
M 172.9 271.05
Q 188.65 261.7 199.95 273.65 211.05 284.2 211.85 308.8 213.2 332 202.5 346.45 183.5 358.7 160.1 361.65 112.35 342.25 172.9 271.05 Z"/>

<path fill="#2D7990" stroke="none" d="
M 199.95 273.65
Q 188.65 261.7 172.9 271.05 112.35 342.25 160.1 361.65 183.5 358.7 202.5 346.45 213.2 332 211.85 308.8 211.05 284.2 199.95 273.65
M 214.6 88.4
Q 237.35 91.2 241.05 71 246.2 49.65 226.15 38.4 206.1 26.5 175.75 32.75
L 119.35 55.9
Q 95.55 73.7 92.3 95.05 89.95 115.2 108.6 126.8 129.15 136.9 114.95 129.65 169.3 74.55 214.6 88.4
M 424.05 274.95
Q 429.25 245.7 417.1 227.85 405.1 211.5 383.55 215.75 361.7 222.35 343.2 245.65 340.6 250.45 338.3 254.6 285.25 299.3 316.45 331.4 337.35 365.55 357.85 360.55 380.6 355.55 398.55 330.35
L 424.05 274.95 Z"/>
</g>

<g id="planet_grey_cut_off_2_0_Layer0_0_FILL">
<path fill="#CCCCCC" stroke="none" d="
M 622.1 153.55
Q 619.75 97.8 553.05 49.6 486.35 1.3 341.4 0 196.4 -1.3 98.25 96.9 -2.05 173.8 5.95 273.2 0 302.8 0 335.9 0 337.1 0 338.3 0 348.95 1.2 359.6 2.4 379.7 9.5 417.55 11.85 429.4 15.4 441.2 16.6 442.4 16.6 443.6 21.25 458.95 28.45 473.15 36.9 524.5 65.75 551.6 94.55 578.7 113.6 587.95 180.1 656.7 272.6 677.95 365.05 699.2 408.2 664.85 441.35 657.75 472.15 644.75 505.1654296875 630.319140625 535.15 608
L 673.25 355.9
Q 673.25 347.2802734375 673.25 339.45 673.25 337.1 673.25 335.9 673.25 321.75 672.05 307.55 670.85 289.75 668.55 273.2 655.45 199.85 622.1 153.55
M 370.55 177.95
Q 383.35 167.75 405.75 178.2 428.15 188.6 434.4 200.9 440.65 213.25 434.4 227.5 428.15 241.7 413.05 249.6 397.95 257.5 382.85 254.4 367.8 251.35 361.55 239.05 355.3 226.7 356.55 207.45 357.8 188.2 370.55 177.95
M 138.9 236.55
Q 147.25 252.95 141.7 270.45 136.15 288 119.9 299.5 103.55 311.05 84.65 331.6 65.75 352.15 59.25 306.55 52.8 260.9 58.3 243.35 63.85 225.8 79.95 217.35 96.1 208.9 113.35 214.6 130.65 220.2 138.9 236.55
M 250.4 534.5
Q 267.5 500.8 305.8 480.75 344.05 460.75 381 466.15 418 471.6 446.4 513.45 474.8 555.35 453.65 585.1 432.45 614.8 383.85 624.5 335.2 634.25 298.25 628.85 261.3 623.5 247.25 595.85 233.25 568.2 250.4 534.5 Z"/>

<path fill="#959191" stroke="none" d="
M 305.8 480.75
Q 267.5 500.8 250.4 534.5 233.25 568.2 247.25 595.85 261.3 623.5 298.25 628.85 335.2 634.25 383.85 624.5 432.45 614.8 453.65 585.1 474.8 555.35 446.4 513.45 418 471.6 381 466.15 344.05 460.75 305.8 480.75
M 141.7 270.45
Q 147.25 252.95 138.9 236.55 130.65 220.2 113.35 214.6 96.1 208.9 79.95 217.35 63.85 225.8 58.3 243.35 52.8 260.9 59.25 306.55 65.75 352.15 84.65 331.6 103.55 311.05 119.9 299.5 136.15 288 141.7 270.45
M 405.75 178.2
Q 383.35 167.75 370.55 177.95 357.8 188.2 356.55 207.45 355.3 226.7 361.55 239.05 367.8 251.35 382.85 254.4 397.95 257.5 413.05 249.6 428.15 241.7 434.4 227.5 440.65 213.25 434.4 200.9 428.15 188.6 405.75 178.2 Z"/>
</g>

<g id="dots_0_Layer0_0_FILL">
<path fill="#FFFFFF" stroke="none" d="
M 229.2 635.85
Q 224.9 635.85 221.85 638.45 218.85 641.05 218.85 644.7 218.85 648.35 221.85 650.95 224.9 653.55 229.2 653.55 233.5 653.55 236.5 650.95 239.55 648.35 239.55 644.7 239.55 641.05 236.5 638.45 233.5 635.85 229.2 635.85
M 309.05 405.15
Q 297.4 405.15 289.15 414.25 280.95 423.35 280.95 436.2 280.95 449.05 289.15 458.15 297.4 467.25 309.05 467.25 320.7 467.25 328.9 458.15 337.15 449.05 337.15 436.2 337.15 423.35 328.9 414.25 320.7 405.15 309.05 405.15
M 25.25 391.1
Q 29.6 385.9 29.6 378.55 29.6 371.2 25.25 366 20.95 360.8 14.8 360.8 8.65 360.8 4.3 366 0 371.2 0 378.55 0 385.9 4.3 391.1 8.65 396.3 14.8 396.3 20.95 396.3 25.25 391.1
M 59.9 159.1
Q 47.35 170.35 47.35 186.3 47.35 202.25 59.9 213.5 72.5 224.75 90.25 224.75 108 224.75 120.55 213.5 133.15 202.25 133.15 186.3 133.15 170.35 120.55 159.1 108 147.85 90.25 147.85 72.5 147.85 59.9 159.1
M 391.85 26.6
Q 397.35 26.6 401.25 22.7 405.15 18.8 405.15 13.3 405.15 7.8 401.25 3.9 397.35 0 391.85 0 386.35 0 382.45 3.9 378.55 7.8 378.55 13.3 378.55 18.8 382.45 22.7 386.35 26.6 391.85 26.6 Z"/>
</g>
</defs>

<g transform="matrix( 1, 0, 0, 1, -29.05,5.7) ">
<g transform="matrix( 1, 0, 0, 1, 0,0) ">
<use xlink:href="#background_0_Layer4_0_FILL"/>
</g>

<g transform="matrix( 1, 0, 0, 1, -153.1,487.75) ">
<g transform="matrix( 1, 0, 0, 1, 0,0) ">
<use filter="url(#Filter_1)" xlink:href="#planet_blue_cut_off_0_Layer0_0_FILL"/>
</g>
</g>

<g transform="matrix( 0.876983642578125, -0.4805145263671875, 0.4805145263671875, 0.876983642578125, 1026.35,2.9) ">
<g transform="matrix( 1, 0, 0, 1, 0,0) ">
<use filter="url(#Filter_2)" xlink:href="#planet_grey_cut_off_0_Layer0_0_FILL"/>
</g>
</g>

<g transform="matrix( -0.8127899169921875, 0, 0, 0.8127899169921875, 1602.4,1838.35) ">
<g transform="matrix( 1, 0, 0, 1, 0,0) ">
<use filter="url(#Filter_3)" xlink:href="#planet_blue_0_Layer0_0_FILL"/>
</g>
</g>

<g transform="matrix( -1.4504241943359375, -0.794708251953125, -0.794708251953125, 1.4504241943359375, 1256.35,1433.6) ">
<g transform="matrix( 1, 0, 0, 1, 0,0) ">
<use filter="url(#Filter_4)" xlink:href="#planet_grey_cut_off_2_0_Layer0_0_FILL"/>
</g>
</g>

<g transform="matrix( 1, 0, 0, 1, 535.3,254.35) ">
<g transform="matrix( 1, 0, 0, 1, 0,0) ">
<use filter="url(#Filter_5)" xlink:href="#dots_0_Layer0_0_FILL"/>
</g>
</g>

<g transform="matrix( -0.1533203125, -0.8414459228515625, -0.8414459228515625, 0.1533203125, 1703.35,1276.65) ">
<g transform="matrix( 1, 0, 0, 1, 0,0) ">
<use filter="url(#Filter_5)" xlink:href="#dots_0_Layer0_0_FILL"/>
</g>
</g>

<g transform="matrix( -0.761322021484375, 0.38970947265625, 0.38970947265625, 0.761322021484375, 1193.55,1727.75) ">
<g transform="matrix( 1, 0, 0, 1, 0,0) ">
<use filter="url(#Filter_5)" xlink:href="#dots_0_Layer0_0_FILL"/>
</g>
</g>
</g>
</svg>
