
<svg xmlns="http://www.w3.org/2000/svg" version="1.1" xmlns:xlink="http://www.w3.org/1999/xlink" preserveAspectRatio="none" x="0px" y="0px" width="300px" height="30px" viewBox="0 0 300 30">
<defs>
<g id="top_menu_bar_0_Layer1_0_FILL">
<path fill="#464646" stroke="none" d="
M 142.8 12.8
L 147.85 5.85
Q 147.85 5.8 147.85 5.75
L 146.1 4.45
Q 146.1 4.55 146.1 4.65
L 141.35 9.6 142.8 12.8 Z"/>

<path fill="#353535" stroke="none" d="
M -145 11.25
L -145.1 11.15 -147.35 14 142.55 12.85 142.8 12.8 141.35 9.6 -145 11.25
M -149.1 -6.8
Q -149.05 -7.15 -149.05 -7.45
L -151.25 -9.65 -151.4 -9.45
Q -151.55 -8.35 -151.65 -7.3 -152.5 2.2 -151.55 9.15
L -151.5 9.2 -149 7.45 -149.1 7.35
Q -150.15 1.4 -149.1 -6.8
M 147.3 -8.35
L 145.65 -6.25
Q 146.35 0 146.1 4.45
L 147.85 5.75
Q 148.15 0 147.35 -8.2
L 147.3 -8.35 Z"/>

<path fill="#060606" stroke="none" d="
M 145.65 -6.25
Q 145.65 -6.5 145.6 -6.7
L 144.9 -7.7
Q 98.9 -11.75 44.35 -2.15 29.8 0.4 14.65 3.9 -30.45 6.1 -63.25 5.95 -76.75 5.9 -88.2 5.45 -140.3 3.4 -149.1 -6.8 -150.15 1.4 -149.1 7.35
L -149 7.45 -145.1 11.15 -145 11.25 141.35 9.6 146.1 4.65
Q 146.1 4.55 146.1 4.45 146.35 0 145.65 -6.25 Z"/>

<path fill="#444444" stroke="none" d="
M -149 7.45
L -151.5 9.2 -147.35 14 -145.1 11.15 -149 7.45 Z"/>

<path fill="#4B4B4B" stroke="none" d="
M -143.8 -13
L -146.25 -15.9 -151.25 -9.65 -149.05 -7.45
Q -149 -7.55 -149 -7.7
L -143.9 -13 -143.8 -13 Z"/>

<path fill="#5A5A5A" stroke="none" d="
M 140.9 -13
L 142.6 -16 -146.2 -16 -146.25 -15.9 -143.8 -13 140.9 -13 Z"/>

<path fill="#1D1D1D" stroke="none" d="
M 141.05 -13
L 140.9 -13 -143.8 -13 -143.9 -13 -149 -7.7
Q -149 -7.55 -149.05 -7.45 -149.05 -7.15 -149.1 -6.8 -140.3 3.4 -88.2 5.45 -76.75 5.9 -63.25 5.95 -30.45 6.1 14.65 3.9 29.8 0.4 44.35 -2.15 98.9 -11.75 144.9 -7.7
L 141.05 -13 Z"/>

<path fill="#494949" stroke="none" d="
M 140.9 -13
L 141.05 -13 144.9 -7.7 145.6 -6.7
Q 145.65 -6.5 145.65 -6.25
L 147.3 -8.35 142.7 -16 142.6 -16 140.9 -13 Z"/>
</g>

<g id="nut_0_Layer0_0_FILL">
<path fill="#000000" stroke="none" d="
M 18.45 3.25
Q 15.25 0 10.8 0 6.3 0 3.15 3.25 0 6.5 0 11.05 0 15.65 3.15 18.85 6.3 22.1 10.8 22.1 15.25 22.1 18.45 18.85 21.6 15.65 21.6 11.05 21.6 6.5 18.45 3.25
M 16.7 4.2
Q 19.3 6.85 19.3 10.6 19.3 14.4 16.7 17 14.05 19.7 10.4 19.7 6.7 19.7 4.1 17 1.5 14.4 1.5 10.6 1.5 6.85 4.1 4.2 6.7 1.5 10.4 1.5 14.05 1.5 16.7 4.2 Z"/>

<path fill="#464646" stroke="none" d="
M 19.3 10.6
Q 19.3 6.85 16.7 4.2 14.05 1.5 10.4 1.5 6.7 1.5 4.1 4.2 1.5 6.85 1.5 10.6 1.5 14.4 4.1 17 6.7 19.7 10.4 19.7 14.05 19.7 16.7 17 19.3 14.4 19.3 10.6
M 4.85 5.75
Q 6.4 4.2 8.55 4.2 10.75 4.2 12.3 5.75 13.85 7.35 9.7 7.7 5.55 8 7.35 11.1 9.05 14.15 7.75 14.55 6.4 14.9 4.85 13.35 3.35 11.8 3.35 9.55 3.35 7.35 4.85 5.75 Z"/>

<path fill="#848484" stroke="none" d="
M 8.55 4.2
Q 6.4 4.2 4.85 5.75 3.35 7.35 3.35 9.55 3.35 11.8 4.85 13.35 6.4 14.9 7.75 14.55 9.05 14.15 7.35 11.1 5.55 8 9.7 7.7 13.85 7.35 12.3 5.75 10.75 4.2 8.55 4.2 Z"/>
</g>

<g id="nut_2_0_Layer0_0_FILL">
<path fill="#2D2D2D" stroke="none" d="
M 18.45 3.25
Q 15.25 0 10.8 0 6.3 0 3.15 3.25 0 6.5 0 11.05 0 15.65 3.15 18.85 6.3 22.1 10.8 22.1 15.25 22.1 18.45 18.85 21.6 15.65 21.6 11.05 21.6 6.5 18.45 3.25
M 16.7 4.2
Q 19.3 6.85 19.3 10.6 19.3 14.4 16.7 17 14.05 19.7 10.4 19.7 6.7 19.7 4.1 17 1.5 14.4 1.5 10.6 1.5 6.85 4.1 4.2 6.7 1.5 10.4 1.5 14.05 1.5 16.7 4.2 Z"/>

<path fill="#464646" stroke="none" d="
M 19.3 10.6
Q 19.3 6.85 16.7 4.2 14.05 1.5 10.4 1.5 6.7 1.5 4.1 4.2 1.5 6.85 1.5 10.6 1.5 14.4 4.1 17 6.7 19.7 10.4 19.7 14.05 19.7 16.7 17 19.3 14.4 19.3 10.6
M 4.85 5.75
Q 6.4 4.2 8.55 4.2 10.75 4.2 12.3 5.75 13.85 7.35 9.7 7.7 5.55 8 7.35 11.1 9.05 14.15 7.75 14.55 6.4 14.9 4.85 13.35 3.35 11.8 3.35 9.55 3.35 7.35 4.85 5.75 Z"/>

<path fill="#848484" stroke="none" d="
M 8.55 4.2
Q 6.4 4.2 4.85 5.75 3.35 7.35 3.35 9.55 3.35 11.8 4.85 13.35 6.4 14.9 7.75 14.55 9.05 14.15 7.35 11.1 5.55 8 9.7 7.7 13.85 7.35 12.3 5.75 10.75 4.2 8.55 4.2 Z"/>
</g>
</defs>

<g transform="matrix( 1, 0, 0, 1, 152.05,16) ">
<g transform="matrix( 1, 0, 0, 1, 0,0) ">
<use xlink:href="#top_menu_bar_0_Layer1_0_FILL"/>
</g>

<g transform="matrix( 0.3330535888671875, 0, 0, -0.3330535888671875, -144.55,8.55) ">
<g transform="matrix( 1, 0, 0, 1, 0,0) ">
<use xlink:href="#nut_0_Layer0_0_FILL"/>
</g>
</g>

<g transform="matrix( 0.3330535888671875, 0, 0, -0.3330535888671875, -144.55,-4.1) ">
<g transform="matrix( 1, 0, 0, 1, 0,0) ">
<use xlink:href="#nut_2_0_Layer0_0_FILL"/>
</g>
</g>

<g transform="matrix( 0.3330535888671875, 0, 0, -0.3330535888671875, 132.6,8.55) ">
<g transform="matrix( 1, 0, 0, 1, 0,0) ">
<use xlink:href="#nut_0_Layer0_0_FILL"/>
</g>
</g>

<g transform="matrix( 0.3330535888671875, 0, 0, -0.3330535888671875, 132.6,-4.1) ">
<g transform="matrix( 1, 0, 0, 1, 0,0) ">
<use xlink:href="#nut_2_0_Layer0_0_FILL"/>
</g>
</g>
</g>
</svg>
