
<svg xmlns="http://www.w3.org/2000/svg" version="1.1" xmlns:xlink="http://www.w3.org/1999/xlink" preserveAspectRatio="none" x="0px" y="0px" width="1879px" height="135px" viewBox="0 0 1879 135">
<defs>
<g id="top_menu_bar_0_Layer1_0_FILL">
<path fill="#444444" stroke="none" d="
M 3.25 113.75
L 29.3 135.45 43.55 122.7 18.95 105.9 3.25 113.75 Z"/>

<path fill="#353535" stroke="none" d="
M 18.9 38.65
L 5 28.65 4 29.6
Q 3.251171875 34.4890625 2.65 39.2 -2.86640625 82.264453125 3.2 113.7
L 3.25 113.75 18.95 105.9 18.35 105.5
Q 11.9822265625 78.698828125 18.4 41.5 18.6380859375 40.10234375 18.9 38.65
M 1838.05 115.55
L 1837.8 115.8 44.2 123.15 43.55 122.7 29.3 135.45 29.4 135.55 1848.25 126.45 1848.8 125.95 1838.05 115.55
M 1875.65 35.15
L 1875.25 34.65 1865.15 44
Q 1869.4818359375 72.341015625 1867.85 92.45
L 1878.7 98.25
Q 1880.5583984375 72.265234375 1875.65 35.15 Z"/>

<path fill="#4B4B4B" stroke="none" d="
M 51.2 13.65
L 51.6 13.65 36.15 0.3 5 28.65 18.9 38.65
Q 18.9994140625 38.1361328125 19.1 37.6
L 51.2 13.65 Z"/>

<path fill="#1D1D1D" stroke="none" d="
M 1860.3 37.5
L 1836.25 13.65 1835.15 13.65 51.6 13.65 51.2 13.65 19.1 37.6
Q 18.9994140625 38.1361328125 18.9 38.65 18.6380859375 40.10234375 18.4 41.5 114.8951171875 122.3267578125 1044.3 90 1495.3111328125 14.1705078125 1860.3 37.5 Z"/>

<path fill="#5A5A5A" stroke="none" d="
M 1835.15 13.65
L 1845.95 0 36.55 0 36.15 0.3 51.6 13.65 1835.15 13.65 Z"/>

<path fill="#464646" stroke="none" d="
M 1867.85 92.45
Q 1867.843359375 92.9564453125 1867.8 93.45
L 1838.05 115.55 1848.8 125.95 1878.7 98.75
Q 1878.7189453125 98.5158203125 1878.7 98.25
L 1867.85 92.45 Z"/>

<path fill="#060606" stroke="none" d="
M 1865.15 44
Q 1865.0076171875 43.044921875 1864.85 42.05
L 1860.3 37.5
Q 1495.3111328125 14.1705078125 1044.3 90 114.8951171875 122.3267578125 18.4 41.5 11.9822265625 78.698828125 18.35 105.5
L 18.95 105.9 43.55 122.7 44.2 123.15 1837.8 115.8 1838.05 115.55 1867.8 93.45
Q 1867.843359375 92.9564453125 1867.85 92.45 1869.4818359375 72.341015625 1865.15 44 Z"/>

<path fill="#494949" stroke="none" d="
M 1864.85 42.05
Q 1865.0076171875 43.044921875 1865.15 44
L 1875.25 34.65 1846.7 0 1845.95 0 1835.15 13.65 1836.25 13.65 1860.3 37.5 1864.85 42.05 Z"/>
</g>

<g id="nut_0_Layer0_0_FILL">
<path fill="#000000" stroke="none" d="
M 18.45 3.25
Q 15.25 0 10.8 0 6.3 0 3.15 3.25 0 6.5 0 11.05 0 15.65 3.15 18.85 6.3 22.1 10.8 22.1 15.25 22.1 18.45 18.85 21.6 15.65 21.6 11.05 21.6 6.5 18.45 3.25
M 16.7 4.2
Q 19.3 6.85 19.3 10.6 19.3 14.4 16.7 17 14.05 19.7 10.4 19.7 6.7 19.7 4.1 17 1.5 14.4 1.5 10.6 1.5 6.85 4.1 4.2 6.7 1.5 10.4 1.5 14.05 1.5 16.7 4.2 Z"/>

<path fill="#464646" stroke="none" d="
M 19.3 10.6
Q 19.3 6.85 16.7 4.2 14.05 1.5 10.4 1.5 6.7 1.5 4.1 4.2 1.5 6.85 1.5 10.6 1.5 14.4 4.1 17 6.7 19.7 10.4 19.7 14.05 19.7 16.7 17 19.3 14.4 19.3 10.6
M 4.85 5.75
Q 6.4 4.2 8.55 4.2 10.75 4.2 12.3 5.75 13.85 7.35 9.7 7.7 5.55 8 7.35 11.1 9.05 14.15 7.75 14.55 6.4 14.9 4.85 13.35 3.35 11.8 3.35 9.55 3.35 7.35 4.85 5.75 Z"/>

<path fill="#848484" stroke="none" d="
M 8.55 4.2
Q 6.4 4.2 4.85 5.75 3.35 7.35 3.35 9.55 3.35 11.8 4.85 13.35 6.4 14.9 7.75 14.55 9.05 14.15 7.35 11.1 5.55 8 9.7 7.7 13.85 7.35 12.3 5.75 10.75 4.2 8.55 4.2 Z"/>
</g>

<g id="nut_2_0_Layer0_0_FILL">
<path fill="#2D2D2D" stroke="none" d="
M 18.45 3.25
Q 15.25 0 10.8 0 6.3 0 3.15 3.25 0 6.5 0 11.05 0 15.65 3.15 18.85 6.3 22.1 10.8 22.1 15.25 22.1 18.45 18.85 21.6 15.65 21.6 11.05 21.6 6.5 18.45 3.25
M 16.7 4.2
Q 19.3 6.85 19.3 10.6 19.3 14.4 16.7 17 14.05 19.7 10.4 19.7 6.7 19.7 4.1 17 1.5 14.4 1.5 10.6 1.5 6.85 4.1 4.2 6.7 1.5 10.4 1.5 14.05 1.5 16.7 4.2 Z"/>

<path fill="#464646" stroke="none" d="
M 19.3 10.6
Q 19.3 6.85 16.7 4.2 14.05 1.5 10.4 1.5 6.7 1.5 4.1 4.2 1.5 6.85 1.5 10.6 1.5 14.4 4.1 17 6.7 19.7 10.4 19.7 14.05 19.7 16.7 17 19.3 14.4 19.3 10.6
M 4.85 5.75
Q 6.4 4.2 8.55 4.2 10.75 4.2 12.3 5.75 13.85 7.35 9.7 7.7 5.55 8 7.35 11.1 9.05 14.15 7.75 14.55 6.4 14.9 4.85 13.35 3.35 11.8 3.35 9.55 3.35 7.35 4.85 5.75 Z"/>

<path fill="#848484" stroke="none" d="
M 8.55 4.2
Q 6.4 4.2 4.85 5.75 3.35 7.35 3.35 9.55 3.35 11.8 4.85 13.35 6.4 14.9 7.75 14.55 9.05 14.15 7.35 11.1 5.55 8 9.7 7.7 13.85 7.35 12.3 5.75 10.75 4.2 8.55 4.2 Z"/>
</g>
</defs>

<g transform="matrix( 1, 0, 0, 1, -0.05,0) ">
<g transform="matrix( 1, 0, 0, 1, 0,0) ">
<use xlink:href="#top_menu_bar_0_Layer1_0_FILL"/>
</g>

<g transform="matrix( 1, 0, 0, 1, 31.5,37.5) ">
<g transform="matrix( 1, 0, 0, 1, 0,0) ">
<use xlink:href="#nut_0_Layer0_0_FILL"/>
</g>
</g>

<g transform="matrix( 1, 0, 0, 1, 31.5,80.95) ">
<g transform="matrix( 1, 0, 0, 1, 0,0) ">
<use xlink:href="#nut_2_0_Layer0_0_FILL"/>
</g>
</g>

<g transform="matrix( 1, 0, 0, 1, 1827.6,33.25) ">
<g transform="matrix( 1, 0, 0, 1, 0,0) ">
<use xlink:href="#nut_0_Layer0_0_FILL"/>
</g>
</g>

<g transform="matrix( 1, 0, 0, 1, 1827.6,76.7) ">
<g transform="matrix( 1, 0, 0, 1, 0,0) ">
<use xlink:href="#nut_2_0_Layer0_0_FILL"/>
</g>
</g>
</g>
</svg>
