<svg xmlns="http://www.w3.org/2000/svg" xmlns:xlink="http://www.w3.org/1999/xlink" preserveAspectRatio="none" width="3000" height="3000"><defs><path id="n" stroke="#000" stroke-width="3" stroke-linejoin="round" stroke-linecap="round" fill="none" d="M30.9-33.9q-4.489 11.878-.95 22.35m3 7.075q5.783-3.644 5.9-13.425v-.4m1.3-21.1l-4.35.55m-28-9.3q3.396 1.187 3.75 3.05 4.806-5.068 16.5-2.65M25.2-4.15q.813 1.018 1.5 2.025 3.685-.745 6.25-2.35M19.15-6.85q-2.556-11.816.95-21.75m-33.5-5.1q6.604-15.993 21.55-3.25 13.014-11.2 22.75 3.05M8.15-36.95q-3.565 2.937-4.35 22m42.475 2.575l.025-.275q.72-6.878-.725-11.5M41.3.6Q44.525.299 47.75-3l.75-3.8m5.3-17.85q-6.381 3.313-7.5 12M-51.325-24.4q-5.707-15.336 10.725-15-.411-9.827 6.95-15.85 11.025-4.482 20.6 1 15.943-11.807 31.1 2.15 15.906-2.973 22.15 12.45 13.74.86 14.1 14.5Q65.616-6.018 48.35 1q2.187 13.84-14.65 18.4-5.05 4.505-10.1.4-.085.082-.175.175-15.153 14.393-31 3.25-.165-.11-.325-.225-17.442 4.44-28.55-12.3l-.3.075q-.12.027-.25.05Q-50.597 13.85-51.3 2l-.15-.175Q-60.383-8.9-51.3-24.35q-.01-.028-.025-.05l6.775-6.65m90.125 6.9q-2.91-9.289-14.525-9.55M19.3 11.95q-.381 4.013 4.125 8.025M15.9 13.85q2.45-3.8 6.25-2.45m7.95.35q-5.462-6.932-3.4-13.875M25-4.55Q9.274-10.312 1.15.025-.322 1.923-1.55 4.35l.025.15q.09.145.175.3 3.145 5.27 2.1 10.55M-20.1-43.6q7.528-.1 11.35-6.05l-3.95-4.15m-25.4 19.3l4.15-.95q1.82-2.394.4-5.3m1.2 24.45l-4.05-.75m4.625 6.35q7.003 6.026 7.5 12.05 11.67-3.55 22.75 3.15M-13-23.375q.946-4.752-.4-10.325-17.396-10.98-18.9 9.9-.151-.003-.3 0l.05 5.65.25 1.85h-.05M1.15.025Q-4.455-2.663-8.2-14.2q-.238-2.195-.175-4.35M-16.3-16.1q2.52-3.358 3.3-7.275m-9.95-6.375q-3.498 6.052-2.25 14.4 1.21 5.76 9.25 9.7m7.575-12.9q.183-8.199 4.575-15.75m-28.8 10.5q-13.362-.116-7.95 12.65 5.344 2.368 1.5 11.5m25.75 13.3q.506 4.787 5.725 9.575m-16.7-21.875q.232 2.855-.925 5.7m-11.55 3.725q4.213-1.563 4.35-5.075m-19.05-3.875q.894-5.541 5.35-6.375"/><path d="M2050.55 786.7q-28.75-20.65-50.85-55.6 1.45-117.1-132.95-124.35Q1811 474.7 1654.15 500.1q-143.5-119.5-304-18.2-92.1-47.15-201.5-8.45-74.2 51.55-73.75 136-161.1-2.8-110.3 128.8v.4q-29.35 41.15-41.55 78.45-58.7 25.15-75.6 48.45Q715.6 966.65 648.1 1147.8q-3.15 6-4.95 11.6 4.9 420.75 79.1 715.05 13.05 47.55 26.95 92.5 187.15 591.1 705.05 592.5 20.75.15 39.65 4.5 2.7-.05 5.85-.6 14.4-1.45 29.25-1.2 508.5-10.4 698.45-581.75 17.55-55.5 33.3-115.6 74.7-295.8 79.3-716.45-1.35-5.85-4.55-11.75-58.45-158-166.9-253.35-20.25-24.7-45.4-46.3-3.2.5-6.35-8.7-17.55-18.85-54-26.4-15.1-3.05-12.3-15.15z" id="f"/><path fill="#DEFFFF" d="M2283.9 1185.3q-1.25-5.45-4.2-10.95-54.55-149-155.65-238.8-18.85-23.25-42.35-43.65-2.9.55-5.85-8.2-6.8-7.35-16.65-12.9H963.6q-.45 1.2-.8 2.4-54.8 23.8-70.5 45.65-122.85 95.25-185.9 266-2.9 5.65-4.6 10.85 4.6 396.45 73.7 673.7 12.25 44.85 25.2 87.15 174.5 556.9 657.35 558.3 19.3.1 37 4.2 2.45-.05 5.4-.65 13.45-1.3 27.3-1.05 474.1-9.8 651.25-548.15 16.25-52.3 30.95-108.85 69.7-278.75 73.95-675.05z" id="g"/><path d="M2804.45 1174.95q-15.35-70.1-34.5-137.15-13.2-42.5-32.85-86l-105.9-211.35q-24.55-33.95-46.35-64.15-5.4-7.5-8.15-11.35-32.7-45.15-69.2-87.55-44.75-53.85-90.5-100.75-210.8-202.3-405.45-255.95-194.65-53.65-566.7-73.9-372.05-20.3-792.8 270.55Q335.75 635.9 227.7 1022.4 192 1150 179.05 1295.9q-21.25 76.2-26.4 159.9-17.05 272.9 136.25 625.55 27.5 140.9 69.45 192 35.05 42.75 56.15 54.15l218.25 205.35q34.95 31.85 73.55 61.05 6.55.85 9.3 4.65 50.6 37.6 106.2 65.6 21.3 18 258.15 87.45 236.8 69.4 279.8 71.95 429.2 25.2 754.9-162.45 325.65-187.65 419.95-279.6 94.3-91.95 165.05-274 44.35-147.15 91.8-357.6 6.4-39.8 37.15-235.9 30.75-196.15-24.15-339.05z" id="b"/><path id="j" stroke="#000" stroke-width="5" stroke-linejoin="round" stroke-linecap="round" fill="none" d="M20.55-131.7l1.8-15.6-12.5-15.5m-1.95-2.05L2.95-139.3m-18.05 4.05q-.05-32.05.45-31.7.9-.15 1.95.05m-37.7 32.65L-52.15-150l12.5-14.75"/><path id="k" stroke="#017373" stroke-width="5" stroke-linejoin="round" stroke-linecap="round" fill="none" d="M66.6-32.5l-9.75-12.3 6.85-5.4.7-18.15-16.35-9.3-8.65 7.3-25.15-.8-6.9 9.1M55.6-13.5q5.573-14.275-12.5-28.55l5.65-19.9M-59.2-163.4q10.95-2.3 21.5-3.2l4.95 25.85m-4.4 76.95l-6.9-9.5-25.15-.8-8.65-7.9-16.35 8.3.7 18.15 6.85 5.9-10.9 11.7m12.15 19.6q-1.604-23.693 12.5-27.75l-5.65-20.2M2.5 29.9q-10.95 11.8-23.6 6.65"/><path id="l" stroke="#019595" stroke-width="5" stroke-linejoin="round" stroke-linecap="round" fill="none" d="M16-45.75l19 19.1m-73.55-21.1L-70.8-31.2"/><g id="m"><path fill="url(#a)" d="M54.3-25.15q-.36-13.64-14.1-14.5-6.244-15.423-22.15-12.45-15.157-13.957-31.1-2.15-9.575-5.482-20.6-1-7.361 6.023-6.95 15.85-16.432-.336-10.75 15l6.8-6.65-6.8 6.65q.04.022.05.05-9.083 15.45-.15 26.15.894-5.516 5.35-6.35-4.456.834-5.35 6.35.071.108.15.2.703 11.85 14.3 8.8.13.002.25-.05 4.213-1.538 4.35-5.05-.137 3.512-4.35 5.05.148-.013.3-.05Q-25.342 27.44-7.9 23q.16.115.3.2-5.194-4.762-5.7-9.55.506 4.787 5.7 9.55 15.872 11.168 31-3.25-4.481-3.987-4.1-8-.381 4.013 4.1 8 .115-.068.2-.15 5.05 4.105 10.1-.4Q50.537 14.84 48.35 1q17.266-7.018 5.95-26.15M30.9-33.9q.08.097.15.2 11.615.261 14.5 9.55 1.47 4.622.75 11.5 1.119-8.687 7.5-12-6.381 3.313-7.5 12l-.05.25.05-.25q.72-6.878-.75-11.5l-6.7 6.25q-.117 9.781-5.9 13.4-2.565 1.63-6.25 2.35-2.062 6.968 3.4 13.9-5.462-6.932-3.4-13.9-.687-.982-1.5-2 .813 1.018 1.5 2 3.685-.72 6.25-2.35l-3-7.05q-3.539-10.472.95-22.35-9.736-14.25-22.75-3.05-3.565 2.937-4.35 22 .785-19.063 4.35-22Q-6.796-49.693-13.4-33.7q1.346 5.573.4 10.3.256 7.332 4.6 4.85.208-8.199 4.6-15.75-4.392 7.551-4.6 15.75-.038 2.155.2 4.35Q-4.455-2.663 1.15 0 9.274-10.312 25-4.55 9.274-10.312 1.15 0q-1.472 1.923-2.7 4.35v.15q.114.145.2.3 3.145 5.27 2.1 10.55 1.045-5.28-2.1-10.55-.086-.155-.2-.3-11.054-6.7-22.75-3.15.257 2.855-.9 5.7 1.157-2.845.9-5.7-.472-6.024-7.5-12.05.1-.125 0-.25l-.55-5.35-4.05-.75 4.05.75h.05l-.25-1.85-.05-5.65q-13.362-.116-7.95 12.65 5.344 2.368 1.5 11.5 3.844-9.132-1.5-11.5-5.412-12.766 7.95-12.65.149-.003.3 0 1.504-20.88 18.9-9.9 6.604-15.993 21.55-3.25 13.014-11.2 22.75 3.05m9.25-5.5l-4.35.55 4.35-.55M7.8-48.15q3.396 1.187 3.75 3.05 4.806-5.068 16.5-2.65-11.694-2.418-16.5 2.65-.354-1.863-3.75-3.05m11.35 41.3q-2.556-11.816.95-21.75-3.506 9.934-.95 21.75M47.75-3l.75-3.8-.75 3.8Q44.525.299 41.3.6 44.525.299 47.75-3M15.9 13.85q2.45-3.8 6.25-2.45-3.8-1.35-6.25 2.45m-24.65-63.5l-3.95-4.15 3.95 4.15q-3.822 5.95-11.35 6.05 7.528-.1 11.35-6.05M-38.1-34.5l4.15-.95q1.82-2.394.4-5.3 1.42 2.906-.4 5.3l-4.15.95z"/><path fill="#FB62BE" d="M-32.35-16.3l.55 5.35q.1.125 0 .25 7.028 6.026 7.5 12.05Q-12.604-2.2-1.55 4.5v-.15Q-.322 1.923 1.15 0-4.455-2.663-8.2-14.2q-.238-2.195-.2-4.35-4.344 2.482-4.6-4.85-.78 3.942-3.3 7.3 2.52-3.358 3.3-7.3.946-4.727-.4-10.3-17.396-10.98-18.9 9.9-.151-.003-.3 0l.05 5.65.25 1.85h-.05m7.15.95q1.21 5.76 9.25 9.7-8.04-3.94-9.25-9.7-1.248-8.348 2.25-14.4-3.498 6.052-2.25 14.4M31.05-33.7q-.07-.103-.15-.2-4.489 11.878-.95 22.35l3 7.05q5.783-3.619 5.9-13.4v-.4.4l6.7-6.25q-2.885-9.289-14.5-9.55z"/></g><g id="o"><path fill="#FED6EE" d="M-6.8 8.15q1.25 1.05 1.5-.35.25-1.35-1.6-2.75-1.85-1.35-4.7-1.9-2.9-.6-5.1 0-2.3.55-2.55 1.95t3.25.1q3.45-1.3 5.65.25 2.3 1.6 3.55 2.7M11.65-2.9Q7.7-2.1 5.2-.35 2.65 1.4 3 3.05q.35 1.65 4.1-1.5Q10.8-1.6 14.4-1q3.7.55 5.8 1.1 2.1.55 1.75-1.1-.35-1.65-3.4-2.2-3-.55-6.9.3m-8.1-31.75q-.3-2.15-2.4-3.75Q-.8-39.9-3.4-40q-2.65-.1-4.25 1.4Q-9.3-37.15-9-34.95q.3 2.2 2.7-.75 2.4-2.9 4.8-1.15Q1-35 2.4-33.7q1.45 1.25 1.15-.95z"/><path fill="#FDBDE3" d="M-15.9-30q-.3-2.15-2.4-3.75-1.95-1.5-4.55-1.6-2.65-.1-4.25 1.4-1.65 1.45-1.35 3.65.3 2.2 2.7-.75 2.4-2.9 4.8-1.15 2.5 1.85 3.9 3.15 1.45 1.25 1.15-.95z"/><path fill="#FA1FA3" d="M-52.9-14.15q-.5 3.55.7 6.05 1.15 2.5 3.3 2.4 2.15-.15-.35-3.85-2.4-3.7-.4-6.75 2.05-3.1 3.45-4.85 1.45-1.8-.7-1.7-2.1.15-3.85 2.75-1.65 2.45-2.15 5.95m95.05 25.6q2.1-2.4 2.25-4.95.2-2.5-1.65-3.55-1.9-1-1.55 3.1.3 4.05-2.85 5.25-3.15 1.3-5.15 1.85-2.1.55-.2 1.65 1.8 1 4.5 0 2.6-.95 4.65-3.35z"/><path fill="#FDCEEF" d="M-26.65-51.6q3.75.1 6 .4 2.3.25.9-1.55-1.4-1.7-4.5-1.8-3-.15-6.05 1.3-3.15 1.5-4.35 3.85-1.3 2.3.1 4.1 1.4 1.75 2.8-2.35 1.5-4.05 5.1-3.95M3.1-54.25q3.55 1.25 5.6 2.2 2.1.9 1.25-.9-.9-1.75-3.8-2.8Q3.35-56.8.1-56.7q-3.4.15-5.1 1.55-1.85 1.3-.95 3.1.85 1.8 3.25-.85 2.45-2.55 5.8-1.35z"/><path fill="#F90698" d="M10.75 20.1q-4.55 2.65-8.6.85-4.1-1.85-6.4-3.05-2.4-1.35-2.1.8.3 2.05 3.7 3.6Q.6 23.8 5.1 24.05q4.55.25 7.7-1.1 3.15-1.3 2.9-3.45-.3-2.1-4.95.6z"/><path fill="#FDB5E0" d="M34.3-30.85q-1.55-.35-2.9-.1l-.75 3.7q2.9-2.3 4.85-.15 2.1 2.3 3.15 3.9 1.2 1.5 1.35-.7.15-2.15-1.6-4.15-1.55-1.9-4.1-2.5z"/><path fill="#FEE7F5" d="M25.7-32.55q1.9 1.25 1.5-.95-.4-2.15-3.15-3.75-2.6-1.5-6-1.6-3.5-.1-5.6 1.4-2.2 1.45-1.8 3.65.4 2.2 3.55-.75 3.2-2.9 6.35-1.15 3.3 1.85 5.15 3.15z"/></g><g id="c"><path fill="#EEE" d="M575.35 623.45q.155-.019.35-.05.04-.046.05-.1-.163.037-.35.05-1.893.396-.05.1m1154.45-323.6l-48.45-55.4q-74.6-5.75-156.6-6.5-527.385-4.828-949.95 386.4-1.065 1.042-2.15 2.05l.5-.2 12.7-4.25q3.3-.45 2 .1l201.05-58.5q.9-.05 1.85 0 4.1-1.8 8.45-3.7 40.9-35.1 87.55-63.25 3.95-.95 6.8-5.9 36-21.4 72.95-38.9 118.85-54.5 183.95-75.05 34.05-12.65 69.15-21.4 3.9-.95 7.75-1.95 109-27.25 211.25-32.1 144.05-48.65 291.2-21.45z"/><path fill="#DCD6D6" d="M786.6 565.35q1.1-.9 2.3-1.8l-201.05 58.5q-.6.2-2.05.6l.05-.7-12.7 4.25q-62.696 70.4-70 77.9l86.55 23.1q22.65-24.15 196.9-161.85z"/><path fill="#ACAAAA" d="M590.25 727.4q-23.75 29.1-18.5 19.75 1.4-2.45 17.95-19.95l-86.55-23.1q-241.05 243.8-217 542.65-21.85 109.2-21.85 231.55v8.7q0 39.35 4.35 78.65 4.35 74.25 30.55 214.1 8.8 43.65 21.85 87.35 4.4 4.35 4.4 8.8 12.15 39.5 28.6 76.9 7.1 16.35 15.1 32.3 31.4 189.75 137.75 289.7 106.35 99.9 176.85 134.1 250.95 236.7 606.1 271.9 355.1 35.2 481.8 12.05 122.3-26.2 235.95-74.25 107.1-46.7 205.65-115.85l-10.45-110.1q-136.1 71.5-218.85 108.5-52.55 21.45-110 39.95-45.65 15.55-92.4 27.25-3.85.95-11.6 2.95-31.25 7.75-66.25 16.5-99.25 16.6-202.45 17.6-40.9 1.95-78.8-.95-59.35-5.75-119.7-15.55-198.85 4.55-309.2-83.8-110.3-88.4-139.5-105.85-149.9-103.15-254.1-238.45-68.1-90.5-118.7-193.6-8.5-18.7-16.9-43.8-40.3-120.1-79.75-388.15Q336.75 1211 491.75 934.6q13.5-64.75 98.5-207.2z"/><path fill="#C3C1C1" d="M2408.25 2343.65l-24.1-139.15q-23.55 26.5-44.8 45.5-80 94.9-136.55 142.65l10.45 110.1q58.1-40.85 113.25-89.5 26.2-26.2 148.75-119.35 4.8-3.7-67 49.75z"/><path fill="#8B8A8A" d="M491.75 934.6q-155 276.4-107.15 600.65 39.45 268.05 79.75 388.15 8.4 25.1 16.9 43.8 50.6 103.1 118.7 193.6 104.2 135.3 254.1 238.45 29.2 17.45 139.5 105.85 110.35 88.35 309.2 83.8 60.35 9.8 119.7 15.55 37.9 2.9 78.8.95 103.2-1 202.45-17.6 35-8.75 66.25-16.5 7.75-2 11.6-2.95 46.75-11.7 92.4-27.25 57.45-18.5 110-39.95 82.75-37 218.85-108.5Q564.5 2306.1 590.25 727.4q-85 142.45-98.5 207.2z"/><path fill="#A2A2A2" d="M790.75 563.55q-.95-.05-1.85 0-1.2.9-2.3 1.8-174.25 137.7-196.9 161.85-16.55 17.5-17.95 19.95-5.25 9.35 18.5-19.75Q564.5 2306.1 2202.8 2392.65q56.55-47.75 136.55-142.65 21.25-19 44.8-45.5 227.8-330.65-73.55-1003.8-301.4-673.2-1519.85-637.15z"/><path fill="#BDBCBC" d="M1729.8 299.85q-147.15-27.2-291.2 21.45-102.25 4.85-211.25 32.1-3.85 1-7.75 1.95-35.1 8.75-69.15 21.4-65.1 20.55-183.95 75.05-36.95 17.5-72.95 38.9-2.85 4.95-6.8 5.9-46.65 28.15-87.55 63.25-4.35 1.9-8.45 3.7Q2009.2 527.5 2310.6 1200.7q301.35 673.15 73.55 1003.8 84.2-94.65 198.2-284.15 123.35-204.9 60.4-577.75Q2428.9 837.45 1729.8 299.85z"/><path fill="#E5E1E1" d="M2750.3 1478.3q0-6.5-.05-13l-107.5-122.7q62.95 372.85-60.4 577.75-114 189.5-198.2 284.15l24.1 139.15q191.35-151.35 237.2-354.2 26.25-61.15 48.1-122.35 13.05-39.3 21.85-83 26.2-109.2 34.9-218.45v-74.3-13.05z"/><path fill="#C1BFBF" d="M2642.75 1342.6q0-.25-.05-.5-11.5-68.2-29.3-142.1-114.9-478-518.85-720.25Q1909.9 333 1729.8 299.85q699.1 537.6 912.95 1042.75z"/><path fill="#FFF" d="M2642.7 1342.1q.05.25.05.5l107.5 122.7q-.5-46-4.3-91.85-1.95-29.25-4.8-57.6-3.5-35.3-8.35-69.1-48-270.9-171.4-441.85-66.4-125.6-283.95-343.8-184.15-184.85-596.1-216.65l48.45 55.4q180.1 33.15 364.75 179.9Q2498.5 722 2613.4 1200q17.8 73.9 29.3 142.1z"/></g><g id="h"><path fill="#C8FCFC" d="M34.15-114.75q-6.366 4.948-13.3 4.5.484 1.043.45 2.3-.04 1.448-.7 2.55 9.095 6.212 16.7 15.25Q57-66.8 65.65-100.85q6.638-26.435-5.4-42.8-2.177-2.993-5-5.65.05.813.1 1.35.064.82.1 1 1.626 5.453-4.7 9.8-6.268 4.343-10.5 4.9.629 12.334-6.1 17.5m10.6-39.8l-3.25-1.6q-3.35-1.495-7.05-2.7 1.116 1.512 2 3.1 4.487.467 8.3 1.2m-94.35 44.7q-3.118-.837-5.65-2.85-1.357-.812-2.25-2.15-1.57-1.864-2.2-4.05-1.302-2.615-2.05-5-2.34.44-4.95.3-7.4-.4-12.6-5.35-1.048-1.008-1.9-2.1-1.579-1.194-2.95-3.15-2.772-4.014-3.2-9.25-9.532 13.849-5.65 37.8 5.65 34.3 28.35 9 7.164-8.113 15.05-13.2z"/><path fill="#004343" d="M48.55-153.7q-1.807-.457-3.8-.85-3.813-.733-8.3-1.2-.884-1.588-2-3.1-.02-.01-.05-.05-6.55-8.7-16.1-9.25-6.37-.334-11.55 3.1-2.57 1.737-4.85 4.4-3.809 4.51-5.55 10.2-2.794-1.22-5.9-1.85-1.467-.294-3-.45-.913-.101-1.85-.15-4.417-.231-8.35.65-6.263 1.412-11.3 5.65-1.64 1.398-2.95 2.9-2.932-1.028-6.3-1.2-3.292-.169-6.2.55-1.26-3.197-4.1-5.9-5.2-4.95-12.65-5.35-.405-.022-.8-.05-.124-.166-.25-.35-.665-.962-1.4-1.75-1.315-1.422-2.85-2.25l-.75-.4q1.07.596-5.6 3.3-6.705 2.729-8.6 5.45-.851 2.72-.9 5.95-.017 1.146.05 2.25.428 5.236 3.2 9.25 1.371 1.956 2.95 3.15.852 1.092 1.9 2.1 5.2 4.95 12.6 5.35 2.61.14 4.95-.3.748 2.385 2.05 5 .63 2.186 2.2 4.05.893 1.338 2.25 2.15 2.532 2.013 5.65 2.85 1.76.452 3.7.55 5.305.31 9.25-2.25.725 2.432 2.2 4.45 2.9 3.9 7.05 4.1 2.4.145 4.4-1 .133.039.25.05 3.52 6.967 6.95 7.6 1.5.304 2.85-.85.216-.162.4-.4.081.557.15 1.05-.23 1.165-.3 2.4.004.206 0 .4-.019 1.751.3 3.3.61 2.63 2.2 4.75.316.427.65.8 2.364 2.675 5.65 2.85 3.8.2 6.45-2.95Q4.486-87.265 5-90.35q1.474.624 3.1.7 4.35.25 7.45-3.35 3.1-3.55 3.15-8.95.017-.894-.05-1.75.906-.2 1.6-1.15.196-.254.35-.55.66-1.102.7-2.55.034-1.257-.45-2.3 6.934.448 13.3-4.5 6.729-5.166 6.1-17.5 4.232-.557 10.5-4.9 6.326-4.347 4.7-9.8-.036-.18-.1-1-.05-.538-.1-1.35-.362.048-.75-1.1-1.891-2.272-5.95-3.3m3.25 3.45q-.14-.075-.25-.15-2.275-1.675-4.8-3.15 2.229 1.201 5.05 3.3z"/><path fill="#8DE9E9" d="M51.55-150.4q.11.075.25.15-2.821-2.099-5.05-3.3 2.525 1.475 4.8 3.15m-32.9 46.7q.067.856.05 1.75-.05 5.4-3.15 8.95-3.1 3.6-7.45 3.35-1.626-.076-3.1-.7-.514 3.085-2.45 5.35-2.65 3.15-6.45 2.95-3.286-.175-5.65-2.85v63.7q-.053.514-.1 1-.664 6.177-1.45 10.2.553 2.37 1.2 4.45Q-4.21 12.828 8.6 8.6 13-10.95 30.8-12.15L43.1-23.9l23.75 9.55q1.95-6.45 3.7-13.45 8.3-34.45 8.8-83.9-.15-.7-.5-1.4-6.513-18.853-18.6-30.55 12.038 16.365 5.4 42.8Q57-66.8 37.3-90.15q-7.605-9.038-16.7-15.25-.154.296-.35.55-.694.95-1.6 1.15m-64.55-5.6q-1.94-.098-3.7-.55-7.886 5.087-15.05 13.2-22.7 25.3-28.35-9-3.882-23.951 5.65-37.8-.067-1.104-.05-2.25.049-3.23.9-5.95-14.637 11.302-22.15 32.3-.35.7-.55 1.35.55 49.5 8.8 84.45 1.45 5.65 3 11l26.95-3.55 9.85 10.7.8.1q18.133 2.722 21.9 24.2 16.461 9.399 17.8-20.9-1.25-3.9-2.65-9.6v-82.35q-.117-.011-.25-.05-2 1.145-4.4 1-4.15-.2-7.05-4.1-1.475-2.018-2.2-4.45-3.945 2.56-9.25 2.25z"/><path fill="#7CD9D9" d="M-9.55-84.9q-.334-.373-.65-.8-1.59-2.12-2.2-4.75 2.972 36.475 2.75 70.25.047-.486.1-1v-63.7m-2.85-11.65q-.069-.493-.15-1.05-.184.238-.4.4.135 1.547.25 3.05.07-1.235.3-2.4m43.2 84.4q2.1-.3 4.4-.05 8.25-.1 19.15 3.95v.9Q50.5 37.4 10.2 21.7q-.9-.4-1.6-.6.15-2.65.7-5.1h-.35q-.9-.4-1.6-.55.35-3.7 1.25-6.85Q-4.21 12.828-9.9-5.55q-28.314 47.227-4.1 56.5 1.624-.083 3.25 0 56.5 1.05 77.6-65.3L43.1-23.9 30.8-12.15z"/><path fill="#6BCBCB" d="M-83.1-12.95l1.4-.3v-.15q1.55-.5 3.15-.8 9.35-2.15 16.55-1.45l.45.05q.486.067.95.2l-9.85-10.7-26.95 3.55Q-76.6 47.8-19.05 50.3q2.3.1 4.4.7l.65-.05q-24.214-9.273 4.1-56.5-.647-2.08-1.2-4.45.786-4.023 1.45-10.2.222-33.775-2.75-70.25-.319-1.549-.3-3.3.004-.194 0-.4-.115-1.503-.25-3.05-1.35 1.154-2.85.85-3.43-.633-6.95-7.6v82.35q1.4 5.7 2.65 9.6-1.339 30.299-17.8 20.9.55 2.3.75 4.8-.4 0-.55.15.35 2.45.55 5.3-.9.3-1.8.65-40.1 12.95-44.15-32.05v-.7z"/><path fill="#9C0" d="M-12.45-166.9q-.125.004-.25 0-1.05-.2-1.95-.05-.5-.35-1.2-.4h-1.25q-10.2-.35-20.6.75-10.55.9-21.5 3.2-6.536 1.197-12.35 3.4 1.535.828 2.85 2.25 21.354-9.623 56.15-8.95.047.002.1 0 4.348.153 8.75.45-4.469-.486-8.75-.65z"/><path fill="#88A901" d="M-22.75-165.8v13.55q3.933-.881 8.35-.65.937.049 1.85.15 1.533.156 3 .45v-13.1l-13.2-.4z"/><path fill="#D3FD2D" d="M1.9-160.65q2.28-2.663 4.85-4.4-5.383-.838-10.45-1.2-4.402-.297-8.75-.45-.053.002-.1 0-34.796-.673-56.15 8.95.735.788 1.4 1.75.126.184.25.35.395.028.8.05 7.45.4 12.65 5.35 2.84 2.703 4.1 5.9 2.908-.719 6.2-.55 3.368.172 6.3 1.2 1.31-1.502 2.95-2.9 5.037-4.238 11.3-5.65v-13.55l13.2.4v13.1q3.106.63 5.9 1.85 1.741-5.69 5.55-10.2z"/><path d="M-37.7 13.85q.15-.15.55-.15-.2-2.5-.75-4.8-3.767-21.478-21.9-24.2 15.845 3.076 20.85 22.95.7 3 1.25 6.2m-44-27.25v.15q1.55-.5 3.15-.95-1.6.3-3.15.8m116.9 1.2q-2.3-.25-4.4.05Q13-10.95 8.6 8.6q-.9 3.15-1.25 6.85.7.15 1.6.55h.35q.9-5.95 2.45-10.45 5.3-15.15 18.5-17.4 2.3-.45 4.95-.35z"/><path fill="#017373" d="M-81.7-13.25l-1.4.3v.7q4.05 45 44.15 32.05.9-.35 1.8-.65-.2-2.85-.55-5.3-.55-3.2-1.25-6.2-5.005-19.874-20.85-22.95l-.8-.1q-.464-.133-.95-.2l-.45-.05q-7.2-.7-16.55 1.45-1.6.45-3.15.95M35.2-12.2q-2.65-.1-4.95.35-13.2 2.25-18.5 17.4Q10.2 10.05 9.3 16q-.55 2.45-.7 5.1.7.2 1.6.6Q50.5 37.4 54.35-7.35v-.9Q43.45-12.3 35.2-12.2z"/></g><g id="i"><path fill="#017373" d="M-19.05 19.7q1.4-1 1.4-2.6t-1.4-2.85q-1.4-1.15-3.35-1.2-1.9-.05-3.35 1-1.4 1.15-1.4 2.75t1.4 2.7q1.45 1.25 3.35 1.3 1.95.05 3.35-1.1m6.5-4.75q-1.4 1.25-1.4 2.8 0 1.6 1.4 2.65 1.45 1.3 3.35 1.4 1.95.05 3.35-1.15 1.4-1 1.4-2.6 0-1.55-1.4-2.85-1.4-1.1-3.35-1.15-1.9-.1-3.35.9z"/><path fill="#D8FFFF" d="M-81.7-16.5q3.85 39.7 42.95 28.35Q-69.9 13.6-81.7-16.5m133.6 4.8Q40.1 17.65 8.95 13.8q39.1 14 42.95-25.5z"/><path d="M-81.7-17.25v.75q11.8 30.1 42.95 28.35.85-.35 1.6-.45-3.9-40-44.55-28.65m26.4 9.75q-3.55-3.85-5.3-.75-1.75 3.15-1.75 1.3 0-1.9 2.1-4.95 2.3-3.3 5.45-.4 3.2 2.9 5.5 3.85 2.1 1.3 2.1 2.55 0 1.3-2.3 1.75-2.3.5-5.8-3.35m107.2-4.2v-.75Q11.25-26.5 7.35 13.25q.7.15 1.6.55Q40.1 17.65 51.9-11.7M17.4-3.4q0-1.3 2.1-2.35 2.3-.85 5.45-3.55 3.2-2.7 5.5.8 2.1 3.2 2.1 5.1 0 1.85-1.75-1.4-1.8-3.2-5.3.4Q22-.85 19.7-1.45q-2.3-.65-2.3-1.95z"/><path fill="#C8FCFC" d="M-60.6-8.25q1.75-3.1 5.3.75 3.5 3.85 5.8 3.35 2.3-.45 2.3-1.75 0-1.25-2.1-2.55-2.3-.95-5.5-3.85-3.15-2.9-5.45.4-2.1 3.05-2.1 4.95 0 1.85 1.75-1.3m80.1 2.5Q17.4-4.7 17.4-3.4t2.3 1.95q2.3.6 5.8-2.95Q29-8 30.8-4.8q1.75 3.25 1.75 1.4 0-1.9-2.1-5.1-2.3-3.5-5.5-.8-3.15 2.7-5.45 3.55z"/></g><radialGradient id="a" gradientUnits="userSpaceOnUse" cx="0" cy="0" r="85.9" fx="0" fy="0" gradientTransform="translate(8.85 18.65)" spreadMethod="pad"><stop offset="0%" stop-color="#FA38AD"/><stop offset="100%" stop-color="#FDACDD"/></radialGradient></defs><use xlink:href="#b"/><use xlink:href="#c"/><g transform="matrix(1.19362 0 0 1.19362 -180.65 2908.75)"><clipPath id="d"><path fill="#FFF" d="M-2-2H8.2v4H-2z"/></clipPath><text clip-path="url(#d)" writing-mode="lr"><tspan x="0" y="0" baseline-shift="-35%" font-family="Impact_Regular" font-size="0" fill="#4FC1D5">zoombies</tspan></text></g><g transform="matrix(1.19362 0 0 1.19362 2764.7 2639.95)"><clipPath id="e"><path fill="#FFF" d="M-2-2H8.2v4H-2z"/></clipPath><text clip-path="url(#e)" writing-mode="lr"><tspan x="0" y="0" baseline-shift="-35%" font-family="Impact_Regular" font-size="0">zoombies</tspan></text></g><use xlink:href="#f"/><use xlink:href="#g"/><use xlink:href="#h" transform="matrix(7.87392 -.3079 -.00072 7.874 1619.25 2055.85)"/><g transform="matrix(7.87392 -.3079 -.00072 7.874 1619.25 2055.85)"><use xlink:href="#i"/><use xlink:href="#j"/><use xlink:href="#k"/><use xlink:href="#l"/></g><g transform="matrix(8.57338 .00404 -.31479 7.9449 1472.895 964.73)"><use xlink:href="#m"/><use xlink:href="#n"/></g><use xlink:href="#o" transform="matrix(8.57338 .00404 -.31479 7.9449 1472.895 964.73)"/></svg>